<svg height="512pt" viewBox="-31 0 512 512" width="512pt" xmlns="http://www.w3.org/2000/svg"><path d="m120 429.5h45v74.996094h-45zm0 0" fill="#85453d"/><path d="m225.300781 362.832031h29.699219l-52.199219-96.667969h29.699219l-90-166.664062-15 27.777344v138.886718l120 193.335938h30zm0 0" fill="#029965"/><g fill="#00b262"><path d="m7.5 459.5h240l-120-222.222656zm0 0"/><path d="m30 362.832031h195l-97.5-180.554687zm0 0"/><path d="m52.5 266.164062h150l-75-138.886718zm0 0"/></g><path d="m427.5 439.5v60l-30-10v-50zm0 0" fill="#85453d"/><path d="m307.5 439.5v60l30-10v-50zm0 0" fill="#a45e43"/><path d="m367.5 262.5v75c24.851562 0 45-20.148438 45-45v-30zm0 0" fill="#999"/><path d="m382.5 292.5v-30h-60v30c0 24.851562 20.144531 45 45 45 8.28125 0 15-20.148438 15-45zm0 0" fill="#b3b3b3"/><path d="m427.390625 261.839844-.023437 15c0 8.289062-6.71875 15-15 15h-30l-14.867188-60 59.867188 30zm0 0" fill="#a45e43"/><path d="m307.390625 261.84375-.019531 15c0 8.28125 6.714844 15 14.996094 15h60c8.285156 0 15-6.71875 15-15l.023437-45zm0 0" fill="#c27749"/><path d="m427.4375 231.839844-.046875 30h-59.890625v-60l59.867188 30zm0 0" fill="#c27749"/><path d="m307.4375 231.84375-.046875 30h90l.046875-60zm0 0" fill="#e18f4e"/><path d="m427.5 192.5-.0625 39.339844h-.070312l-29.929688.003906-19.9375-59.34375h30c11.046875 0 20 8.949219 20 20zm0 0" fill="#cf301b"/><path d="m397.5 192.5c0-11.046875-8.957031-20-20-20h-50c-11.046875 0-20 8.953125-20 20l-.0625 39.34375h90zm0 0" fill="#ff4128"/><path d="m367.5 7.5-45 90h90v-45c0-24.851562-20.148438-45-45-45zm0 0" fill="#cf301b"/><path d="m322.5 52.5v45h45v-90c-24.855469 0-45 20.148438-45 45zm0 0" fill="#ff4128"/><path d="m394.5 61.5h-27v81c24.847656 0 45-20.152344 45-45 0-14.71875-7.070312-27.800781-18-36zm0 0" fill="#ffd9d4"/><path d="m380.699219 76.140625c1.148437 6.359375 1.800781 13.628906 1.800781 21.359375 0 24.847656-6.722656 45-15 45-24.851562 0-45-20.152344-45-45zm0 0" fill="#fff0d3"/><path d="m394.5 61.5c-4.042969 5.378906-8.671875 10.289062-13.800781 14.640625l-13.199219-23.640625c10.117188 0 19.480469 3.351562 27 9zm0 0" fill="#c27749"/><path d="m322.5 97.5c0-24.851562 20.148438-45 45-45 5.699219 0 10.667969 9.558594 13.199219 23.640625-15.691407 13.320313-36.011719 21.359375-58.199219 21.359375zm0 0" fill="#e18f4e"/><path d="m112.5 340.332031c-4.144531 0-7.5 3.359375-7.5 7.5v15c0 4.140625 3.355469 7.5 7.5 7.5s7.5-3.359375 7.5-7.5v-15c0-4.140625-3.355469-7.5-7.5-7.5zm0 0"/><path d="m237.871094 370.332031h17.128906.019531c4.144531 0 7.5-3.359375 7.5-7.5 0-1.480469-.429687-2.859375-1.167969-4.019531l-45.976562-85.148438h17.125.019531c4.144531 0 7.5-3.355468 7.5-7.5 0-1.476562-.429687-2.855468-1.167969-4.019531l-89.75-166.207031c-1.3125-2.425781-3.847656-3.9375-6.601562-3.9375-2.757812 0-5.289062 1.511719-6.601562 3.9375l-90 166.664062c-1.253907 2.324219-1.191407 5.136719.160156 7.40625 1.355468 2.269532 3.800781 3.660157 6.441406 3.660157h17.125l-46.226562 85.601562c-1.253907 2.324219-1.191407 5.136719.160156 7.40625 1.355468 2.265625 3.800781 3.65625 6.441406 3.65625h17.125l-46.226562 85.601563c-1.253907 2.324218-1.191407 5.136718.160156 7.40625 1.355468 2.269531 3.800781 3.660156 6.441406 3.660156h105v37.5c0 4.140625 3.355469 7.5 7.5 7.5h45c4.140625 0 7.5-3.359375 7.5-7.5v-37.5h105c2.640625 0 5.085938-1.390625 6.4375-3.660156 1.355469-2.269532 1.414062-5.082032.160156-7.40625zm-80.371094 126.667969h-30v-30h30zm-137.425781-45 46.226562-85.605469c1.253907-2.324219 1.191407-5.136719-.160156-7.40625-1.351563-2.265625-3.796875-3.65625-6.441406-3.65625h-17.125l46.226562-85.601562c1.253907-2.324219 1.191407-5.136719-.160156-7.40625s-3.796875-3.660157-6.441406-3.660157h-17.125l77.425781-143.378906 77.425781 143.378906h-17.125c-2.644531 0-5.089843 1.390626-6.441406 3.660157-1.355469 2.269531-1.414063 5.082031-.160156 7.40625l46.226562 85.601562h-17.125c-2.644531 0-5.089843 1.390625-6.441406 3.660157-1.355469 2.265624-1.414063 5.082031-.160156 7.40625l46.226562 85.601562zm0 0"/><path d="m142.5 213.667969c-4.144531 0-7.5 3.355469-7.5 7.5v15c0 4.140625 3.355469 7.5 7.5 7.5s7.5-3.359375 7.5-7.5v-15c0-4.144531-3.355469-7.5-7.5-7.5zm0 0"/><path d="m444.871094 497.382812-9.871094-3.289062v-54.59375c0-4.144531-3.359375-7.5-7.5-7.5h-22.5v-102.808594c8.035156-8.214844 13.410156-19.042968 14.695312-31.078125 8.820313-3.046875 15.171876-11.425781 15.171876-21.257812l.132812-84.355469c0-15.164062-12.335938-27.5-27.5-27.5h-80c-12.46875 0-23.019531 8.339844-26.378906 19.726562-42.515625-3.265624-76.121094-38.882812-76.121094-82.226562 0-4.140625-3.359375-7.5-7.5-7.5-4.144531 0-7.5 3.359375-7.5 7.5 0 51.234375 39.722656 93.367188 89.988281 97.210938l-.117187 77.132812c0 9.941406 6.484375 18.394531 15.441406 21.359375 1.304688 12 6.667969 22.796875 14.6875 30.988281v102.808594h-22.5c-4.144531 0-7.5 3.355469-7.5 7.5v54.59375l-9.871094 3.289062c-3.933594 1.308594-6.054687 5.558594-4.746094 9.488282 1.050782 3.140625 3.976563 5.128906 7.117188 5.128906.785156 0 1.585938-.125 2.371094-.386719l45-15c3.0625-1.019531 5.128906-3.886719 5.128906-7.113281v-149.578125c6.824219 3.25 14.449219 5.078125 22.5 5.078125 8.046875 0 15.675781-1.828125 22.5-5.078125v149.578125c0 3.226562 2.0625 6.09375 5.125 7.113281l45 15c.789062.261719 1.589844.386719 2.375.386719 3.140625 0 6.066406-1.988281 7.113281-5.128906 1.308594-3.929688-.8125-8.179688-4.742187-9.488282zm-129.945313-258.039062h45l-.015625 15h-45.007812zm60 0h45l-.023437 15h-44.992188zm44.953125 30-.007812 7.5c0 4.136719-3.367188 7.5-7.5 7.5h-37.492188l.015625-15zm.121094-76.855469-.050781 31.855469h-45.007813l.050782-44.34375h32.507812c6.890625 0 12.5 5.605469 12.5 12.488281zm-92.5-12.488281h32.492188l-.050782 44.34375h-44.992187l.050781-31.84375c0-6.894531 5.605469-12.5 12.5-12.5zm-12.617188 89.34375h45.011719l-.015625 15h-37.511718c-4.132813 0-7.5-3.363281-7.5-7.488281zm.117188 219.75v-42.09375h15v37.09375zm15.636719-189.75h73.726562c-3.230469 17.417969-18.523437 30.65625-36.863281 30.65625s-33.636719-13.238281-36.863281-30.65625zm74.363281 147.65625h15v42.09375l-15-5zm0 0"/><path d="m367.5 150c28.945312 0 52.5-23.550781 52.5-52.5v-45c0-28.949219-23.554688-52.5-52.5-52.5-28.949219 0-52.5 23.550781-52.5 52.5v45c0 28.949219 23.550781 52.5 52.5 52.5zm0-15c-18.230469 0-33.453125-13.078125-36.808594-30.339844 25.03125-2.054687 47.917969-13.496094 64.609375-32.300781 6.023438 6.65625 9.699219 15.476563 9.699219 25.140625 0 20.675781-16.824219 37.5-37.5 37.5zm-36.652344-45.421875c3.644532-16.882813 18.691406-29.578125 36.652344-29.578125 5.582031 0 10.878906 1.234375 15.644531 3.433594-13.714843 14.933594-32.140625 24.144531-52.296875 26.144531zm-.847656-37.078125c0-20.679688 16.820312-37.5 37.5-37.5 20.675781 0 37.5 16.820312 37.5 37.5v8.308594c-9.539062-9.746094-22.820312-15.808594-37.5-15.808594s-27.964844 6.0625-37.5 15.808594zm0 0"/><path d="m142.5 370.332031c-4.144531 0-7.5 3.359375-7.5 7.5v15c0 4.140625 3.355469 7.5 7.5 7.5s7.5-3.359375 7.5-7.5v-15c0-4.140625-3.355469-7.5-7.5-7.5zm0 0"/></svg>