<?xml version="1.0" standalone="no"?>
<!DOCTYPE svg PUBLIC "-//W3C//DTD SVG 20010904//EN"
 "http://www.w3.org/TR/2001/REC-SVG-20010904/DTD/svg10.dtd">
<svg version="1.0" xmlns="http://www.w3.org/2000/svg"
 width="1280.000000pt" height="649.000000pt" viewBox="0 0 1280.000000 649.000000"
 preserveAspectRatio="xMidYMid meet">
<metadata>
Created by potrace 1.15, written by Peter Selinger 2001-2017
</metadata>
<g transform="translate(0.000000,649.000000) scale(0.100000,-0.100000)"
fill="#3a6345" stroke="none">
<path d="M1030 6469 c-19 -10 -66 -30 -103 -45 -66 -27 -69 -27 -97 -11 -37
22 -45 21 -70 -5 -23 -25 -26 -52 -6 -70 11 -11 8 -19 -17 -49 l-30 -36 -41
23 c-23 13 -45 24 -49 24 -17 0 -38 -71 -31 -106 6 -34 46 -86 72 -95 9 -3 -4
-42 -47 -135 -33 -72 -71 -165 -85 -205 -29 -86 -44 -179 -28 -179 9 0 210
127 381 242 75 51 86 55 112 46 32 -11 79 1 118 31 l23 18 -31 36 -32 35 26
28 c14 15 25 31 25 35 0 5 13 6 29 3 21 -5 34 0 50 17 26 28 26 40 1 72 -41
52 -15 318 33 337 15 6 -10 9 -73 8 -72 0 -103 -5 -130 -19z"/>
<path d="M1606 6475 c7 -18 21 -20 27 -2 2 6 8 -9 12 -35 4 -27 9 -48 10 -48
2 0 27 11 56 24 l52 25 -58 25 c-66 30 -108 34 -99 11z"/>
<path d="M2330 6480 c0 -5 14 -52 30 -104 27 -84 62 -150 72 -136 4 5 30 87
59 188 l18 62 -90 0 c-52 0 -89 -4 -89 -10z"/>
<path d="M2815 6450 c-10 -22 -15 -43 -12 -46 9 -9 307 66 307 77 0 5 -62 9
-138 9 l-139 0 -18 -40z"/>
<path d="M3556 6465 c9 -14 19 -25 23 -25 3 0 14 -7 23 -14 17 -12 14 -22 -41
-137 -33 -68 -72 -160 -86 -204 -26 -77 -44 -185 -31 -185 7 0 243 151 377
240 79 54 88 58 130 53 49 -6 105 15 116 43 3 9 -6 27 -22 44 l-28 29 27 31
c14 17 26 36 26 41 0 6 9 5 21 -1 16 -9 26 -8 43 4 33 21 38 51 14 81 l-19 25
-295 0 -294 0 16 -25z"/>
<path d="M5748 6474 c-15 -8 -62 -28 -105 -45 -75 -31 -78 -31 -109 -14 -25
13 -36 15 -53 6 -34 -19 -45 -49 -27 -76 14 -21 13 -24 -4 -40 -11 -10 -22
-26 -25 -36 -5 -16 -10 -16 -56 8 -61 32 -71 25 -77 -52 -4 -54 -3 -56 37 -97
l42 -41 -56 -122 c-30 -67 -67 -155 -81 -196 -25 -72 -44 -189 -30 -189 9 0
163 98 331 210 117 78 133 86 160 79 37 -11 96 5 119 30 16 18 16 21 1 44 -9
14 -23 28 -31 31 -13 5 -11 11 10 37 14 17 26 35 26 40 0 4 14 6 30 2 59 -11
93 53 49 93 -20 18 -21 25 -15 122 7 120 29 209 54 215 9 3 -23 5 -73 5 -62 1
-99 -3 -117 -14z"/>
<path d="M6312 6470 c7 -11 14 -16 16 -10 9 25 22 6 22 -30 0 -22 4 -40 10
-40 13 0 100 43 100 50 0 8 -114 50 -138 50 -20 0 -21 -2 -10 -20z"/>
<path d="M7051 6418 c24 -87 64 -178 78 -178 5 0 22 39 36 88 14 48 30 100 35
116 6 16 10 33 10 37 0 5 -40 9 -89 9 l-90 0 20 -72z"/>
<path d="M7520 6449 c-12 -23 -19 -43 -16 -46 4 -4 147 27 269 58 72 19 38 29
-98 29 l-135 0 -20 -41z"/>
<path d="M8250 6481 c0 -5 16 -23 36 -41 l36 -32 -56 -117 c-86 -181 -137
-343 -118 -377 6 -10 54 16 199 110 105 68 206 135 224 149 29 21 41 24 87 20
44 -5 58 -2 87 18 19 13 35 27 35 30 0 4 -14 22 -30 39 l-31 33 26 27 c14 14
25 32 25 38 0 9 5 10 19 2 28 -15 38 -13 61 12 26 28 25 52 -2 78 -21 19 -34
20 -310 20 -163 0 -288 -4 -288 -9z"/>
<path d="M10430 6465 c-25 -13 -71 -34 -103 -46 -56 -21 -59 -21 -91 -4 -26
14 -37 15 -54 6 -27 -14 -37 -52 -22 -80 9 -17 8 -25 -5 -37 -8 -9 -20 -24
-25 -34 -10 -18 -12 -18 -53 5 -23 14 -47 25 -54 25 -7 0 -18 -18 -24 -40 -17
-55 1 -111 45 -145 l34 -26 -53 -113 c-29 -62 -67 -152 -84 -200 -33 -92 -51
-196 -34 -196 10 0 375 234 429 275 28 21 35 23 67 13 29 -9 41 -7 73 8 57 29
64 47 30 83 l-28 29 28 36 c20 25 34 34 46 30 28 -9 54 4 67 33 11 23 9 30
-10 56 -20 27 -21 38 -16 141 6 125 21 184 52 196 13 6 -15 9 -75 9 -81 0
-102 -3 -140 -24z"/>
<path d="M11010 6481 c0 -16 22 -24 30 -11 4 7 10 -7 14 -34 4 -25 9 -46 11
-46 11 0 95 45 95 50 0 10 -103 50 -128 50 -12 0 -22 -4 -22 -9z"/>
<path d="M11740 6475 c0 -24 56 -182 75 -211 9 -14 21 -22 25 -18 4 5 24 62
43 127 l35 117 -89 0 c-71 0 -89 -3 -89 -15z"/>
<path d="M12222 6445 c-18 -37 -19 -45 -7 -45 35 0 304 73 299 81 -3 5 -65 9
-138 9 l-132 0 -22 -45z"/>
<path d="M2950 6421 c-80 -21 -152 -40 -160 -43 -8 -4 79 -7 193 -7 l208 -1
-33 45 c-18 24 -40 44 -48 44 -8 -1 -80 -18 -160 -38z"/>
<path d="M7652 6421 c-84 -21 -156 -41 -159 -45 -3 -3 85 -6 196 -6 159 0 201
3 195 13 -22 36 -58 77 -68 76 -6 0 -80 -17 -164 -38z"/>
<path d="M12352 6420 c-84 -21 -156 -40 -159 -44 -4 -3 87 -6 201 -6 l207 0
-33 45 c-18 24 -40 44 -48 44 -8 -1 -84 -18 -168 -39z"/>
<path d="M1721 6390 l-63 -30 7 -71 c14 -136 7 -135 122 -11 l102 109 -35 16
c-47 23 -59 22 -133 -13z"/>
<path d="M6425 6388 c-33 -17 -61 -31 -62 -32 -4 -3 19 -180 23 -185 3 -4 71
67 168 176 l38 42 -37 16 c-50 20 -60 19 -130 -17z"/>
<path d="M11126 6389 l-59 -31 7 -74 c12 -129 9 -128 112 -17 50 54 94 104 98
111 5 8 -4 17 -28 27 -48 20 -62 19 -130 -16z"/>
<path d="M1802 6256 l-112 -121 6 -75 c3 -41 8 -77 9 -79 4 -3 484 255 498
268 4 4 -43 28 -105 54 -62 25 -129 52 -148 60 l-35 15 -113 -122z"/>
<path d="M6504 6253 l-115 -125 6 -47 c10 -76 16 -102 24 -99 4 2 114 61 244
131 202 110 264 147 244 147 -2 0 -68 27 -145 59 l-142 59 -116 -125z"/>
<path d="M11208 6253 l-114 -126 9 -71 c5 -39 11 -73 12 -74 2 -2 117 58 255
133 138 76 250 139 248 140 -2 2 -69 30 -149 63 l-146 60 -115 -125z"/>
<path d="M2758 6317 c-11 -22 -18 -40 -16 -42 3 -3 134 11 181 20 19 3 27 0
27 -10 0 -23 56 -20 63 4 4 15 18 19 87 25 90 8 136 20 110 29 -8 3 -109 7
-223 9 l-209 3 -20 -38z"/>
<path d="M7464 6322 c-19 -47 -18 -52 14 -47 95 17 172 21 176 8 7 -18 56 -17
56 1 0 18 17 23 110 32 80 7 117 18 90 28 -8 3 -109 6 -223 8 l-209 3 -14 -33z"/>
<path d="M12184 6350 c-8 -7 -35 -73 -32 -75 2 -1 47 3 102 9 80 10 99 10 103
-1 3 -7 19 -13 35 -13 22 0 29 4 25 14 -7 18 7 23 103 32 84 7 124 19 100 27
-20 8 -430 14 -436 7z"/>
<path d="M1983 6097 c-144 -78 -265 -145 -268 -148 -5 -6 34 -329 41 -338 4
-4 587 567 592 579 2 6 -35 24 -93 46 -5 2 -128 -61 -272 -139z"/>
<path d="M6679 6093 l-265 -145 21 -164 c12 -90 24 -166 27 -169 3 -3 139 126
303 287 l297 292 -38 17 c-22 9 -48 19 -59 22 -14 4 -103 -40 -286 -140z"/>
<path d="M11395 6099 c-143 -78 -264 -145 -268 -149 -8 -7 29 -330 39 -339 5
-5 590 568 592 580 2 6 -29 20 -93 45 -5 2 -127 -60 -270 -137z"/>
<path d="M2067 5872 c-257 -257 -332 -342 -303 -342 15 0 887 527 885 535 -2
9 -242 114 -264 115 -6 0 -148 -138 -318 -308z"/>
<path d="M6773 5872 c-238 -234 -310 -311 -305 -324 6 -14 82 28 451 247 243
145 445 266 447 268 4 4 -265 118 -276 117 -3 0 -145 -139 -317 -308z"/>
<path d="M11478 5873 c-174 -173 -308 -315 -308 -325 0 -10 2 -18 3 -18 6 0
881 521 890 530 8 7 -208 104 -258 116 -16 3 -83 -59 -327 -303z"/>
<path d="M4547 6109 c-22 -13 -22 -55 0 -68 26 -14 32 -163 9 -187 -13 -12
-14 -19 -5 -30 6 -8 18 -14 27 -14 8 0 21 -8 28 -17 11 -15 9 -21 -8 -40 -23
-24 -17 -40 19 -54 18 -7 33 -5 53 5 27 13 29 12 82 -41 66 -68 145 -133 163
-133 13 0 7 35 -39 230 -10 42 -12 68 -6 74 6 6 10 25 10 44 0 32 -2 34 -28
29 -31 -6 -56 20 -46 48 9 22 -15 47 -39 39 -36 -11 -167 60 -167 91 0 21 -32
35 -53 24z"/>
<path d="M9248 6109 c-24 -13 -23 -45 1 -61 30 -21 41 -160 16 -188 -21 -23
-13 -50 14 -50 11 0 25 -9 32 -21 9 -17 7 -24 -10 -41 -25 -22 -20 -35 17 -49
18 -7 34 -6 54 2 27 11 31 8 107 -64 74 -70 137 -115 147 -104 3 3 -9 66 -26
142 -27 115 -30 141 -20 165 7 16 9 38 5 50 -5 17 -12 20 -33 15 -31 -6 -56
22 -42 45 15 24 -7 50 -38 44 -36 -7 -155 53 -160 81 -3 18 -28 45 -41 45 -3
0 -14 -5 -23 -11z"/>
<path d="M2240 5779 c-250 -148 -459 -274 -463 -278 -5 -5 -3 -46 3 -92 20
-157 -6 -159 218 13 108 83 203 156 210 161 9 7 21 2 42 -18 l29 -28 50 38
c28 20 51 42 51 48 0 6 -10 21 -22 35 -21 21 -21 25 -7 35 111 83 419 323 419
327 0 5 -59 30 -71 30 -2 0 -209 -122 -459 -271z"/>
<path d="M6935 5775 l-460 -275 4 -42 c2 -24 8 -75 15 -115 l11 -72 207 160
c114 87 212 159 217 159 5 0 16 -11 25 -25 9 -14 21 -25 27 -25 6 0 32 17 57
37 26 21 49 38 50 39 2 1 -7 16 -19 33 -29 39 -45 22 215 220 l198 151 -36 15
c-19 8 -39 15 -43 14 -4 0 -215 -124 -468 -274z"/>
<path d="M11651 5781 c-249 -148 -457 -273 -463 -279 -11 -11 11 -222 24 -222
5 0 97 68 205 151 108 83 202 153 208 156 7 2 22 -8 34 -23 24 -31 37 -28 100
27 l35 29 -23 31 c-13 17 -19 35 -15 39 5 5 101 79 214 165 113 86 206 160
208 164 2 6 -54 31 -69 31 -3 0 -209 -121 -458 -269z"/>
<path d="M3263 6023 c-7 -2 -13 -15 -13 -27 0 -39 -102 -118 -154 -120 -28 -1
-31 -4 -32 -36 -1 -59 -2 -60 -36 -58 -47 4 -50 -31 -8 -74 l32 -32 -16 -75
c-23 -111 -29 -177 -19 -195 7 -13 27 2 112 89 70 70 111 105 126 105 12 0 30
9 40 20 17 18 17 21 2 38 -21 23 -12 60 16 64 27 4 34 35 13 51 -28 21 -42
187 -16 187 17 0 20 34 4 51 -17 19 -28 22 -51 12z"/>
<path d="M7962 6018 c-7 -7 -12 -22 -12 -33 0 -30 -116 -116 -146 -109 -28 7
-51 -20 -35 -40 9 -11 10 -20 1 -35 -8 -16 -17 -19 -40 -14 -28 5 -30 4 -30
-26 0 -29 23 -63 48 -72 6 -3 3 -34 -9 -89 -16 -73 -26 -210 -15 -210 2 0 50
47 106 105 73 73 111 105 127 105 13 0 33 10 45 22 l22 22 -22 14 c-17 11 -19
17 -10 37 6 13 19 26 29 28 23 6 25 34 4 57 -9 10 -18 47 -21 91 -5 62 -4 77
10 88 29 24 13 71 -24 71 -9 0 -21 -5 -28 -12z"/>
<path d="M12674 6022 c-7 -4 -14 -18 -15 -32 -5 -35 -109 -113 -151 -114 -31
-1 -33 -4 -34 -36 -1 -62 -1 -61 -39 -54 -34 6 -35 5 -35 -24 0 -21 9 -38 30
-56 l31 -25 -21 -100 c-21 -106 -26 -176 -11 -185 5 -3 54 41 109 99 61 64
108 105 120 105 11 0 30 9 43 19 23 18 23 20 7 38 -22 24 -13 63 13 63 26 0
35 27 16 48 -9 9 -21 48 -28 85 -12 62 -11 72 6 104 14 26 16 39 8 51 -12 19
-33 25 -49 14z"/>
<path d="M0 5850 l0 -148 77 -72 c74 -69 129 -107 140 -96 3 3 -9 67 -26 143
-27 117 -30 143 -20 169 17 43 6 68 -26 60 -28 -7 -47 18 -39 51 7 26 -9 36
-63 39 l-43 1 0 -147z"/>
<path d="M4172 5365 c1 -14 8 -25 14 -25 7 0 9 10 6 25 -2 14 -8 25 -13 25 -5
0 -8 -11 -7 -25z"/>
<path d="M8878 5384 c-11 -10 4 -44 20 -44 12 0 13 3 5 11 -6 6 -9 18 -6 25 5
14 -8 19 -19 8z"/>
<path d="M4163 5313 c-3 -10 -8 -21 -10 -25 -2 -5 8 -3 22 2 41 16 44 11 5 -8
-19 -9 -36 -25 -38 -35 -3 -15 6 -17 72 -17 42 0 76 3 76 8 -1 12 -48 62 -60
62 -5 0 -9 6 -7 13 4 21 -52 21 -60 0z"/>
<path d="M8865 5309 c-9 -27 -6 -29 33 -12 36 15 35 33 -3 33 -15 0 -26 -7
-30 -21z"/>
<path d="M8890 5284 c-32 -14 -49 -30 -50 -46 0 -4 35 -9 78 -11 l77 -3 -82
-2 -81 -2 -15 -45 -16 -45 27 5 c26 5 26 5 -3 -7 l-30 -13 50 -6 50 -6 -52 -1
c-47 -2 -52 -4 -62 -32 -5 -16 -7 -30 -4 -30 4 0 35 5 70 11 48 8 67 8 78 -1
11 -9 18 -7 32 9 9 12 25 21 35 21 9 0 40 5 68 11 49 11 60 28 17 30 -19 0
-20 1 -4 7 16 7 15 11 -12 36 l-29 28 -67 -22 c-36 -12 -68 -20 -70 -18 -3 2
27 14 65 27 l70 22 -41 50 c-23 27 -47 49 -53 49 -6 -1 -27 -8 -46 -16z m117
-171 c-20 -2 -52 -2 -70 0 -17 2 0 4 38 4 39 0 53 -2 32 -4z"/>
<path d="M856 5271 c-10 -15 2 -66 16 -69 10 -2 14 7 14 32 0 33 -19 56 -30
37z"/>
<path d="M5563 5269 c-5 -5 -8 -23 -5 -39 3 -22 10 -30 24 -30 16 0 18 3 10
13 -6 7 -9 22 -6 34 6 23 -8 37 -23 22z"/>
<path d="M10266 5272 c-10 -16 1 -67 16 -70 11 -2 13 6 10 33 -4 35 -16 53
-26 37z"/>
<path d="M101 5247 c-6 -8 -6 -18 -1 -27 5 -8 5 -21 -1 -31 -7 -14 -4 -19 12
-24 26 -9 33 -1 21 21 -6 10 -7 25 -2 34 11 21 -14 44 -29 27z"/>
<path d="M4803 5245 c-6 -7 -9 -16 -5 -19 3 -4 6 -19 7 -34 0 -20 6 -28 23
-30 20 -3 22 -1 13 16 -5 10 -8 28 -5 39 7 26 -16 46 -33 28z"/>
<path d="M9511 5247 c-6 -8 -6 -18 -1 -27 5 -8 5 -21 -1 -31 -7 -14 -4 -19 12
-24 26 -9 35 0 20 19 -9 10 -9 20 -3 33 13 23 -10 49 -27 30z"/>
<path d="M4211 5220 l-84 -5 -14 -39 c-7 -22 -12 -41 -10 -43 2 -2 30 6 62 17
33 11 63 19 68 17 5 -1 -26 -14 -69 -27 l-79 -25 50 -6 50 -6 -48 -1 c-40 -2
-49 -6 -59 -27 -6 -14 -9 -28 -6 -31 3 -2 36 1 74 8 53 9 69 9 72 0 5 -17 18
-15 39 7 10 10 36 21 58 25 80 13 95 18 89 27 -3 5 -17 9 -32 10 -21 0 -23 2
-9 8 17 6 17 8 -3 34 -12 15 -28 27 -36 27 -8 0 -13 4 -10 9 12 19 -22 26
-103 21z m86 -107 c-20 -2 -52 -2 -70 0 -17 2 0 4 38 4 39 0 53 -2 32 -4z"/>
<path d="M2941 5201 c-10 -18 -6 -31 11 -31 5 0 7 4 3 9 -3 5 -1 12 5 16 5 3
10 10 10 16 0 16 -19 10 -29 -10z"/>
<path d="M7647 5198 c-6 -21 -2 -36 7 -27 10 11 16 49 8 49 -5 0 -12 -10 -15
-22z"/>
<path d="M12347 5201 c-3 -11 -2 -22 1 -25 7 -8 31 27 26 36 -9 14 -22 8 -27
-11z"/>
<path d="M824 5167 c-9 -16 -14 -30 -12 -32 2 -2 26 1 55 7 45 9 51 13 43 28
-5 10 -23 20 -40 22 -27 4 -33 0 -46 -25z"/>
<path d="M10234 5167 c-9 -16 -14 -30 -12 -31 2 -1 27 2 55 7 47 7 52 11 43
27 -5 10 -23 20 -40 22 -27 4 -33 0 -46 -25z"/>
<path d="M5525 5159 c-16 -29 -15 -31 2 -26 10 3 35 8 56 12 20 3 37 9 37 13
0 17 -25 32 -52 32 -21 0 -31 -8 -43 -31z"/>
<path d="M7608 5166 c-25 -18 -23 -23 13 -31 17 -4 28 -9 26 -12 -3 -2 -22 0
-43 6 -30 8 -42 8 -52 -3 -12 -12 -5 -20 46 -55 34 -23 64 -41 68 -41 4 0 4
26 1 57 -7 67 -31 100 -59 79z"/>
<path d="M2891 5156 c-9 -11 -9 -15 1 -19 7 -2 3 -3 -8 -1 -24 4 -54 -23 -37
-34 83 -55 114 -74 118 -70 2 2 2 21 -2 42 -4 25 -13 41 -27 47 -20 9 -20 9 2
5 24 -5 30 12 10 32 -16 16 -43 15 -57 -2z"/>
<path d="M12301 5156 c-9 -11 -9 -15 1 -19 7 -2 4 -3 -6 -1 -10 2 -45 -15 -78
-37 -56 -38 -66 -58 -30 -60 10 0 12 -3 5 -5 -7 -3 -21 0 -32 6 -12 6 -21 7
-21 3 0 -11 240 -156 247 -150 3 4 2 22 -1 41 -6 33 -11 36 -76 57 -38 13 -68
25 -65 27 3 3 68 -16 123 -36 6 -2 12 3 12 12 0 9 -31 37 -70 62 -38 26 -70
49 -70 52 0 4 22 -9 90 -55 19 -12 37 -23 40 -23 3 0 4 18 2 41 -3 30 -10 43
-26 49 l-21 9 23 0 c27 1 29 17 3 31 -26 13 -36 13 -50 -4z"/>
<path d="M60 5123 c-11 -19 -20 -37 -20 -40 0 -6 105 6 126 14 24 9 -3 40 -45
51 -39 9 -41 9 -61 -25z"/>
<path d="M9470 5125 c-11 -18 -20 -36 -20 -40 0 -8 108 3 127 13 19 11 -8 39
-50 50 -35 10 -37 9 -57 -23z"/>
<path d="M4761 5116 c-12 -18 -21 -35 -21 -38 0 -7 130 18 138 27 12 12 -39
45 -68 45 -21 0 -34 -8 -49 -34z"/>
<path d="M844 5128 c-40 -8 -55 -16 -63 -35 -13 -29 -14 -28 94 -43 44 -6 89
-14 99 -17 16 -5 15 2 -12 48 -34 59 -41 62 -118 47z"/>
<path d="M5553 5128 c-37 -7 -56 -16 -68 -34 -8 -13 -14 -24 -13 -25 12 -4
214 -36 216 -34 9 8 -55 105 -68 104 -8 -1 -38 -6 -67 -11z"/>
<path d="M10254 5128 c-40 -8 -54 -16 -63 -36 -7 -13 -10 -26 -9 -27 2 -1 44
-7 93 -14 50 -7 98 -15 108 -18 16 -4 14 4 -12 49 -33 58 -40 61 -117 46z"/>
<path d="M1870 5095 c0 -14 6 -25 14 -25 9 0 12 8 8 25 -2 14 -8 25 -13 25 -5
0 -9 -11 -9 -25z"/>
<path d="M6576 5098 c8 -27 12 -33 19 -27 7 8 -7 49 -17 49 -5 0 -6 -10 -2
-22z"/>
<path d="M11278 5114 c-10 -9 4 -44 17 -44 8 0 10 9 7 25 -4 24 -13 31 -24 19z"/>
<path d="M2789 5084 c-19 -14 -33 -30 -31 -36 2 -6 -4 -8 -13 -5 -8 4 -15 3
-15 -1 0 -6 216 -141 241 -150 12 -5 12 65 0 72 -5 3 -7 15 -4 25 4 15 -12 30
-70 70 l-75 50 -33 -25z m97 -78 c38 -14 64 -25 58 -25 -5 -1 -41 10 -80 23
-38 14 -64 25 -58 25 5 1 41 -10 80 -23z"/>
<path d="M7487 5080 l-39 -28 56 -18 c31 -10 54 -19 52 -22 -3 -2 -28 4 -56
13 -28 9 -53 15 -56 13 -4 -5 225 -148 236 -148 3 0 4 18 2 40 -4 35 -8 40
-46 55 -22 8 -29 13 -14 10 14 -3 33 -8 42 -11 17 -6 21 4 8 22 -6 9 -100 75
-137 96 -6 4 -27 -6 -48 -22z"/>
<path d="M76 5069 c-27 -6 -55 -18 -62 -27 -14 -18 -19 -52 -8 -52 4 0 61 -9
127 -20 66 -12 121 -19 123 -17 3 2 -10 31 -29 63 -30 53 -36 59 -67 61 -19 0
-57 -3 -84 -8z"/>
<path d="M4780 5067 c-44 -10 -57 -18 -72 -43 l-18 -31 132 -22 c73 -12 136
-21 140 -21 4 0 -10 29 -30 65 -41 73 -45 74 -152 52z"/>
<path d="M9482 5068 c-43 -8 -55 -15 -68 -40 -8 -16 -14 -31 -12 -33 6 -6 259
-47 263 -43 2 2 -12 32 -31 66 -39 69 -42 70 -152 50z"/>
<path d="M729 5002 c-17 -30 -28 -56 -26 -58 5 -5 306 32 313 38 2 3 -2 12 -9
21 -8 11 -50 22 -130 35 l-117 18 -31 -54z"/>
<path d="M1848 5011 l-16 -50 47 -4 46 -3 -51 -2 c-50 -2 -51 -3 -62 -41 -16
-52 -16 -51 19 -39 16 6 32 8 35 6 2 -3 -15 -11 -38 -18 l-43 -14 35 -7 35 -6
-35 -2 c-30 -1 -37 -6 -47 -31 -13 -35 -14 -35 75 -16 51 11 64 11 68 1 6 -16
44 -7 44 10 0 8 28 17 75 24 80 13 91 30 22 32 l-42 2 34 6 34 6 -25 29 c-25
29 -26 30 -68 17 -23 -7 -44 -11 -46 -8 -2 2 14 9 37 16 33 10 38 15 28 27 -6
8 -19 14 -28 14 -11 0 -12 3 -4 8 8 5 4 16 -14 36 -23 27 -27 28 -61 18 -47
-15 -54 -8 -8 8 41 13 39 30 -3 30 -24 0 -29 -6 -43 -49z m119 -168 c-20 -2
-52 -2 -70 0 -17 2 0 4 38 4 39 0 53 -2 32 -4z"/>
<path d="M3429 5028 c-18 -41 -130 -103 -159 -88 -25 13 -54 -14 -41 -38 14
-27 -12 -57 -38 -43 -33 18 -41 13 -41 -29 0 -29 6 -43 23 -57 l23 -17 -34
-90 c-19 -50 -36 -115 -39 -145 -7 -65 -11 -66 133 47 78 61 108 79 133 79 17
0 39 7 47 15 14 14 14 17 -2 32 -14 15 -15 21 -4 41 7 13 18 21 25 19 6 -3 18
2 25 11 11 13 11 20 -1 42 -8 16 -14 54 -13 95 0 57 4 72 22 89 25 22 28 39
10 57 -23 23 -54 14 -69 -20z"/>
<path d="M6563 5045 c-3 -9 -3 -19 0 -22 9 -9 68 18 61 28 -9 15 -54 10 -61
-6z"/>
<path d="M8145 5046 c-3 -9 -7 -22 -9 -28 -2 -7 -36 -30 -75 -51 -58 -31 -75
-37 -86 -27 -21 18 -48 -6 -41 -35 3 -12 0 -30 -8 -40 -10 -14 -16 -16 -34 -6
-29 16 -42 6 -42 -30 0 -19 9 -38 24 -52 l25 -23 -40 -114 c-35 -104 -48 -170
-33 -170 3 0 58 40 122 88 80 60 126 88 146 89 15 1 35 8 44 17 14 14 14 17 0
33 -14 15 -14 21 -4 36 7 9 21 17 30 17 23 0 31 27 16 55 -19 36 -10 171 14
188 28 20 18 61 -17 65 -18 2 -29 -2 -32 -12z"/>
<path d="M10136 5001 c-18 -31 -29 -57 -25 -59 9 -4 310 36 315 41 2 2 -2 11
-9 20 -8 11 -50 22 -130 35 l-118 19 -33 -56z"/>
<path d="M11261 5023 c-7 -21 -15 -43 -17 -50 -4 -8 11 -13 43 -16 l48 -3 -51
-2 c-50 -2 -51 -3 -62 -41 -7 -21 -12 -41 -12 -44 0 -3 20 1 46 10 25 8 47 13
49 11 3 -2 -21 -13 -53 -23 l-57 -19 35 -7 35 -6 -37 -2 c-31 -1 -38 -5 -47
-31 -12 -35 -12 -35 77 -16 34 7 62 10 62 5 0 -5 11 -9 25 -9 14 0 24 5 23 12
-2 7 25 17 70 26 80 16 94 31 30 34 -38 1 -39 2 -10 5 l32 4 -21 31 c-19 26
-26 29 -58 24 -34 -5 -35 -5 -8 5 22 9 26 14 16 25 -6 8 -19 14 -28 14 -12 0
-13 2 -3 8 9 6 4 16 -17 36 -27 26 -33 27 -62 17 -18 -6 -34 -9 -36 -7 -2 2
10 8 26 14 39 14 40 32 3 32 -24 0 -31 -6 -41 -37z m116 -180 c-20 -2 -52 -2
-70 0 -17 2 0 4 38 4 39 0 53 -2 32 -4z"/>
<path d="M5431 4998 c-16 -29 -28 -54 -27 -56 5 -4 306 35 312 41 2 2 2 11 -1
19 -5 11 -37 20 -110 32 -145 22 -139 24 -174 -36z"/>
<path d="M2690 5012 l-22 -18 65 -30 c39 -17 68 -37 71 -48 3 -14 11 -17 27
-13 13 4 47 -5 85 -23 107 -48 73 -11 -65 73 -71 42 -131 77 -134 77 -2 0 -15
-8 -27 -18z"/>
<path d="M6580 5012 c-19 -9 -36 -25 -38 -34 -3 -14 6 -18 45 -21 l48 -3 -51
-2 c-51 -2 -52 -3 -68 -43 -9 -22 -14 -45 -11 -50 4 -5 0 -10 -7 -10 -7 -1 5
-5 27 -9 l40 -7 -38 -2 c-31 -1 -39 -6 -48 -27 -5 -15 -8 -28 -6 -30 2 -2 28
1 58 6 30 6 71 8 92 4 28 -4 37 -2 37 8 0 10 24 18 75 27 78 13 92 30 27 32
l-37 2 33 6 34 6 -31 30 -31 29 -101 -33 c-55 -18 -102 -31 -104 -29 -3 2 41
19 96 37 98 32 121 52 69 59 -15 3 -19 6 -11 11 8 6 6 15 -9 34 -25 31 -41 33
-90 9z m97 -169 c-20 -2 -52 -2 -70 0 -17 2 0 4 38 4 39 0 53 -2 32 -4z"/>
<path d="M7392 5012 l-23 -18 71 -31 c42 -19 69 -37 68 -45 -2 -9 6 -12 26
-11 15 1 55 -11 88 -28 55 -28 85 -32 62 -9 -14 14 -254 160 -262 160 -4 0
-17 -8 -30 -18z"/>
<path d="M12095 5014 c-23 -17 -20 -20 62 -56 33 -15 52 -29 50 -38 -1 -11 6
-14 26 -13 15 1 57 -11 92 -27 108 -48 75 -11 -64 73 -71 42 -133 77 -138 77
-4 0 -17 -7 -28 -16z"/>
<path d="M2200 5000 c0 -10 -8 -24 -17 -29 -17 -9 -16 -11 5 -26 12 -9 22 -23
22 -32 0 -13 3 -13 15 -3 13 11 14 6 8 -35 l-6 -47 44 7 c71 12 74 17 28 54
-31 25 -38 36 -28 42 11 6 11 11 2 20 -8 8 -9 18 -2 31 8 15 6 18 -15 18 -14
0 -28 5 -31 10 -10 17 -25 11 -25 -10z"/>
<path d="M6910 5002 c0 -12 -10 -27 -22 -33 l-22 -12 22 -8 c12 -5 22 -16 22
-25 0 -11 5 -14 16 -10 14 5 15 0 9 -40 l-7 -46 44 7 c83 13 83 13 33 53 -39
30 -44 37 -29 42 13 5 14 9 5 14 -8 5 -10 18 -7 32 5 20 3 24 -17 24 -13 0
-28 5 -35 12 -9 9 -12 7 -12 -10z"/>
<path d="M11610 5001 c0 -11 -8 -25 -17 -30 -17 -9 -16 -11 5 -26 12 -9 22
-23 22 -32 0 -13 3 -13 15 -3 13 11 14 8 9 -21 -3 -19 -8 -40 -10 -47 -3 -10
7 -12 44 -6 76 11 78 16 26 57 -30 23 -41 37 -30 37 13 0 15 4 7 17 -6 11 -6
24 0 35 8 15 6 18 -11 18 -12 0 -30 5 -41 10 -16 9 -19 7 -19 -9z"/>
<path d="M0 4913 c0 -74 -13 -70 165 -48 66 8 123 15 127 15 4 0 2 11 -4 25
-7 16 -22 27 -42 30 -17 3 -79 14 -138 24 l-108 18 0 -64z"/>
<path d="M4640 4909 c-23 -39 -40 -72 -38 -73 1 -2 89 7 193 20 105 13 193 23
198 24 11 0 9 14 -6 34 -9 12 -51 24 -152 42 -77 13 -143 24 -147 24 -4 0 -26
-32 -48 -71z"/>
<path d="M9343 4908 c-23 -40 -41 -73 -40 -74 1 -1 88 9 192 22 105 12 196 23
203 23 10 1 10 6 1 24 -6 12 -13 23 -14 25 -2 3 -283 52 -295 52 -3 0 -24 -33
-47 -72z"/>
<path d="M12740 4956 c-31 -17 -50 -21 -62 -15 -23 13 -26 12 -38 -12 -8 -13
-8 -24 -2 -32 7 -8 6 -18 -3 -30 -10 -14 -17 -16 -40 -7 -15 6 -30 8 -33 5
-14 -13 -3 -67 17 -89 l22 -24 -36 -106 c-22 -66 -35 -120 -33 -143 l3 -36
119 92 c67 53 124 90 132 87 12 -4 14 24 14 164 0 94 -3 170 -7 170 -5 -1 -28
-11 -53 -24z"/>
<path d="M855 4948 c-149 -19 -181 -25 -174 -32 7 -7 389 -49 394 -44 9 8 -46
98 -58 97 -7 -1 -79 -10 -162 -21z"/>
<path d="M5548 4946 c-86 -11 -159 -24 -162 -27 -6 -6 334 -49 381 -49 22 0
22 0 -5 47 -16 27 -35 49 -43 49 -8 1 -85 -8 -171 -20z"/>
<path d="M10253 4947 c-90 -12 -163 -24 -163 -29 0 -4 6 -8 13 -8 6 0 86 -9
177 -20 91 -11 175 -20 188 -20 l23 0 -27 50 c-15 28 -32 49 -38 49 -6 -1 -84
-11 -173 -22z"/>
<path d="M651 4866 c-12 -18 -21 -36 -21 -40 0 -3 47 -6 105 -6 87 0 105 -3
105 -15 0 -9 9 -15 25 -15 16 0 25 6 25 15 0 12 19 15 110 15 101 0 129 7 99
26 -9 5 -378 53 -416 54 -6 0 -21 -15 -32 -34z"/>
<path d="M5351 4860 l-22 -40 105 0 c88 0 106 -3 106 -15 0 -10 10 -15 30 -15
20 0 30 5 30 15 0 12 18 15 105 15 97 0 124 7 94 26 -10 6 -365 53 -410 54 -8
0 -25 -18 -38 -40z"/>
<path d="M10060 4868 c-11 -18 -20 -36 -20 -40 0 -5 47 -8 105 -8 87 0 105 -3
105 -15 0 -9 9 -15 25 -15 15 0 25 6 25 15 0 12 21 15 110 17 88 2 108 6 101
16 -6 9 -74 22 -212 38 -112 13 -207 24 -212 24 -4 0 -16 -15 -27 -32z"/>
<path d="M155 4850 c-77 -10 -143 -19 -147 -19 -5 -1 -8 -11 -8 -24 0 -22 5
-24 185 -46 102 -13 188 -22 190 -19 6 5 -65 128 -73 127 -4 -1 -70 -9 -147
-19z"/>
<path d="M4800 4844 c-193 -24 -227 -30 -218 -39 8 -8 488 -68 494 -62 8 8
-59 127 -71 126 -5 -1 -98 -12 -205 -25z"/>
<path d="M9505 4844 c-195 -23 -232 -30 -224 -39 5 -4 461 -65 491 -65 15 0
13 8 -17 62 -19 35 -38 63 -42 64 -4 1 -98 -9 -208 -22z"/>
<path d="M3852 4817 c-26 -27 -28 -54 -7 -83 13 -19 11 -28 -26 -99 -68 -134
-110 -190 -144 -193 -40 -5 -55 -19 -55 -51 0 -32 16 -51 43 -51 13 0 17 -5
13 -16 -3 -9 -6 -31 -6 -50 0 -31 -3 -34 -29 -34 -16 0 -41 -4 -55 -10 -22 -8
-24 -13 -17 -38 20 -67 64 -102 128 -102 l39 0 28 -142 c16 -79 41 -180 56
-226 28 -83 69 -157 81 -144 7 8 123 306 165 425 24 69 31 80 64 97 39 20 65
52 76 94 5 23 2 26 -39 37 l-45 11 0 49 c0 42 3 49 19 49 11 0 24 11 31 25 16
36 -2 73 -39 77 -23 2 -39 20 -86 88 -73 108 -100 177 -81 205 19 27 18 48 -7
79 -27 34 -77 36 -107 3z"/>
<path d="M8563 4825 c-28 -20 -33 -47 -16 -83 14 -28 12 -34 -28 -113 -43 -86
-94 -168 -113 -181 -6 -4 -23 -8 -39 -8 -19 0 -31 -7 -39 -25 -14 -32 3 -75
31 -75 16 0 19 -7 18 -50 -1 -49 -1 -50 -31 -50 -78 0 -94 -25 -56 -87 23 -39
67 -63 114 -63 29 0 37 -4 40 -22 3 -13 15 -72 27 -133 33 -170 78 -303 117
-348 15 -16 18 -12 47 60 17 43 62 159 99 259 62 167 70 182 99 195 37 16 79
75 75 104 -2 14 -14 22 -43 28 l-40 9 0 49 c0 38 4 49 16 49 23 0 39 21 39 50
0 32 -17 50 -46 50 -17 0 -37 21 -81 88 -72 107 -101 177 -84 203 42 68 -39
141 -106 94z"/>
<path d="M1488 4819 c-24 -13 -23 -44 2 -69 16 -16 20 -33 20 -92 -1 -48 -6
-80 -15 -92 -16 -22 -4 -46 23 -46 8 0 21 -8 28 -17 11 -15 9 -21 -9 -41 -19
-21 -20 -24 -5 -39 18 -18 72 -20 92 -4 9 8 30 -8 82 -60 62 -63 149 -128 159
-118 2 2 -12 69 -30 149 -21 90 -30 149 -24 155 5 5 9 24 9 43 0 32 -2 34 -27
29 -34 -6 -54 17 -46 56 3 15 2 27 -3 28 -5 1 -25 2 -45 3 -49 4 -139 55 -159
90 -18 34 -28 39 -52 25z"/>
<path d="M2296 4814 c-38 -8 -71 -15 -72 -17 -4 -4 -33 -181 -30 -185 2 -1 60
33 130 75 l128 77 -38 33 c-22 18 -41 32 -44 32 -3 -1 -36 -8 -74 -15z"/>
<path d="M6188 4819 c-24 -13 -23 -45 1 -61 29 -21 42 -165 17 -184 -24 -17
-16 -48 12 -52 12 -2 27 -12 33 -23 8 -16 6 -23 -12 -38 -26 -21 -20 -35 20
-49 20 -7 35 -7 52 2 22 12 29 7 102 -61 72 -69 131 -113 150 -113 10 0 6 18
-30 173 -21 90 -23 113 -13 137 17 41 5 73 -26 66 -27 -7 -49 23 -39 53 7 24
-17 43 -47 36 -32 -8 -152 53 -156 80 -3 18 -28 45 -41 45 -3 0 -14 -5 -23
-11z"/>
<path d="M7030 4819 c-119 -21 -105 -8 -119 -110 -7 -50 -11 -92 -9 -94 3 -3
229 133 244 147 7 7 -26 40 -56 56 -8 5 -35 5 -60 1z"/>
<path d="M10886 4811 c-14 -15 -15 -24 -7 -39 6 -11 16 -22 23 -24 8 -3 14
-32 16 -82 3 -61 1 -81 -12 -95 -20 -22 -11 -51 16 -51 12 0 27 -8 34 -17 11
-15 9 -21 -8 -40 -35 -37 12 -71 68 -48 31 13 33 12 85 -42 66 -68 146 -133
164 -133 9 0 4 38 -21 147 -23 98 -31 150 -24 157 5 5 10 25 10 44 0 32 -2 34
-28 29 -31 -6 -56 20 -46 48 9 22 -15 46 -40 39 -32 -8 -147 55 -166 91 -20
37 -41 42 -64 16z"/>
<path d="M11706 4814 c-38 -8 -71 -16 -73 -18 -5 -5 -34 -179 -30 -183 2 -1
61 32 131 75 l127 77 -38 32 c-21 18 -40 32 -43 32 -3 -1 -36 -8 -74 -15z"/>
<path d="M4541 4739 l-31 -49 131 0 c122 0 131 -1 136 -20 7 -27 76 -30 71 -2
-3 15 9 17 130 16 101 -1 132 2 132 12 0 7 -4 16 -10 19 -5 3 -112 19 -237 35
-125 16 -242 31 -260 34 -30 4 -35 1 -62 -45z"/>
<path d="M9247 4745 c-15 -25 -27 -48 -27 -50 0 -3 59 -5 130 -5 123 0 130 -1
130 -20 0 -16 7 -20 35 -20 29 0 35 4 35 21 0 22 2 22 135 16 74 -3 135 -2
135 3 0 23 -49 34 -257 61 -125 16 -242 31 -258 34 -27 4 -33 1 -58 -40z"/>
<path d="M0 4730 c0 -39 1 -40 35 -40 28 0 35 -4 35 -20 0 -16 7 -20 35 -20
29 0 35 4 35 21 0 22 2 22 135 17 74 -3 135 -3 135 1 -1 24 -33 33 -208 56
-105 14 -194 25 -197 25 -3 0 -5 -18 -5 -40z"/>
<path d="M2330 4660 l-145 -89 -11 -75 c-9 -68 -9 -76 5 -72 9 3 134 30 279
62 144 31 261 60 260 65 -2 5 -185 154 -233 190 -5 4 -75 -33 -155 -81z"/>
<path d="M7040 4664 c-78 -47 -140 -92 -146 -106 -7 -12 -15 -49 -19 -81 -6
-54 -5 -58 12 -53 10 3 133 30 273 61 140 31 259 57 264 58 7 2 -211 184 -239
198 -5 3 -71 -31 -145 -77z"/>
<path d="M11740 4660 l-145 -88 -11 -74 c-7 -40 -11 -74 -10 -75 3 -4 556 121
556 126 -1 3 -33 31 -73 62 -40 31 -95 75 -122 97 l-51 40 -144 -88z"/>
<path d="M727 4602 c-20 -21 -22 -64 -6 -90 21 -34 -120 -282 -160 -282 -54 0
-83 -45 -56 -86 8 -13 22 -24 29 -24 10 0 14 -13 14 -45 -1 -48 -1 -48 -70
-60 -42 -7 -46 -17 -24 -70 18 -42 52 -65 112 -73 l47 -7 29 -144 c40 -201 97
-361 128 -361 8 0 87 196 164 406 33 90 41 103 72 117 38 19 76 72 72 102 -2
14 -14 23 -43 29 -40 9 -40 9 -40 57 0 38 4 49 15 49 24 0 40 21 40 51 0 32
-23 59 -51 59 -22 0 -96 97 -136 178 -26 54 -30 82 -18 140 6 24 3 38 -10 52
-24 26 -86 27 -108 2z"/>
<path d="M5431 4601 c-24 -24 -27 -58 -6 -85 12 -16 10 -26 -22 -89 -19 -39
-53 -100 -75 -134 -34 -53 -44 -63 -68 -63 -36 0 -60 -24 -60 -59 0 -30 16
-51 40 -51 13 0 15 -8 10 -47 -5 -48 -5 -48 -48 -54 -60 -8 -68 -19 -46 -66
24 -48 76 -83 124 -83 l38 0 17 -97 c36 -202 89 -370 128 -402 20 -16 23 -11
134 288 76 205 79 209 115 225 26 12 43 30 58 61 12 25 19 49 16 54 -3 5 -24
12 -46 16 l-40 7 0 49 c0 34 4 49 13 49 8 0 22 9 32 20 27 30 10 72 -34 86
-39 13 -129 135 -161 220 -19 51 -19 55 -2 83 16 29 16 31 -4 58 -28 37 -83
44 -113 14z"/>
<path d="M10131 4594 c-25 -32 -26 -43 -5 -72 15 -21 14 -27 -15 -87 -16 -36
-50 -96 -75 -135 -37 -56 -51 -70 -71 -70 -30 0 -65 -32 -65 -59 0 -23 25 -51
45 -51 10 0 13 -12 12 -42 -2 -48 -10 -58 -49 -58 -62 0 -74 -28 -38 -88 22
-36 72 -62 119 -62 24 0 32 -5 35 -22 3 -13 17 -80 31 -150 37 -184 88 -324
121 -335 7 -2 16 9 22 24 169 453 179 475 219 497 42 24 80 83 70 109 -4 10
-22 19 -44 23 -38 6 -38 6 -38 55 0 38 4 49 15 49 24 0 40 21 40 50 0 31 -28
60 -56 60 -14 0 -37 26 -76 84 -72 109 -95 167 -79 202 16 36 14 61 -9 84 -30
30 -83 27 -109 -6z"/>
<path d="M269 4533 c-1 -4 -1 -17 0 -29 1 -11 -3 -32 -8 -47 -8 -20 -7 -27 1
-27 7 0 4 -6 -5 -13 -10 -7 -28 -46 -41 -87 -22 -68 -23 -76 -8 -82 14 -5 13
-7 -5 -7 -14 -1 -24 -11 -31 -31 -12 -33 -16 -32 92 -10 26 6 45 5 58 -3 16
-10 22 -9 32 5 7 10 40 22 79 29 37 7 67 16 67 21 0 4 -28 9 -62 10 l-63 2 53
3 c28 2 52 7 52 10 0 4 -12 19 -26 34 l-26 27 -56 -19 c-31 -11 -60 -18 -65
-16 -6 2 18 11 52 22 34 10 60 23 58 29 -2 6 -35 13 -73 16 l-69 6 57 4 58 5
-50 58 c-28 32 -50 65 -50 72 0 15 -19 31 -21 18z m46 -93 c-27 -12 -43 -12
-25 0 8 5 22 9 30 9 10 0 8 -3 -5 -9z m12 -187 c-20 -2 -52 -2 -70 0 -17 2 0
4 38 4 39 0 53 -2 32 -4z"/>
<path d="M9679 4533 c-1 -4 0 -18 1 -30 1 -12 -4 -32 -10 -43 -15 -29 -10 -32
28 -19 36 12 39 21 17 39 -8 7 -15 21 -15 31 0 18 -19 38 -21 22z"/>
<path d="M4975 4510 c3 -10 -1 -33 -10 -51 l-17 -32 29 6 c27 6 26 5 -4 -8
-23 -11 -33 -22 -33 -38 0 -13 -4 -27 -9 -32 -4 -6 -15 -31 -24 -57 -14 -43
-14 -47 1 -51 13 -3 11 -5 -4 -6 -15 -1 -24 -10 -28 -27 -4 -15 -6 -28 -4 -29
2 -2 35 3 73 11 46 10 71 11 73 4 5 -15 42 -12 42 4 0 10 22 18 75 27 41 7 75
17 75 21 0 4 -28 9 -62 10 l-63 2 53 3 52 4 -27 34 c-20 26 -33 33 -48 29 -15
-4 -16 -3 -6 4 26 19 -1 32 -67 34 l-67 2 58 3 c31 2 57 7 57 10 0 17 -54 61
-69 56 -13 -4 -13 -3 -2 5 11 8 9 14 -8 31 -11 11 -21 28 -21 36 0 8 -5 15
-11 15 -6 0 -8 -8 -4 -20z m35 -211 c-46 -16 -89 -29 -95 -28 -14 1 147 57
165 57 8 0 -23 -13 -70 -29z m27 -46 c-20 -2 -52 -2 -70 0 -17 2 0 4 38 4 39
0 53 -2 32 -4z"/>
<path d="M2446 4456 c-235 -52 -281 -65 -287 -81 -9 -24 -52 -315 -47 -320 3
-3 716 381 728 392 9 9 -75 73 -95 72 -11 0 -146 -28 -299 -63z"/>
<path d="M7147 4456 c-152 -35 -279 -65 -281 -67 -5 -5 -55 -333 -52 -337 4
-3 717 385 728 396 11 11 -71 72 -96 71 -12 0 -146 -29 -299 -63z"/>
<path d="M11853 4456 c-150 -33 -276 -65 -281 -71 -9 -10 -57 -323 -51 -330 2
-2 164 84 359 190 195 107 360 196 365 199 18 8 -68 75 -95 74 -14 0 -147 -28
-297 -62z"/>
<path d="M9694 4430 c-34 -15 -43 -26 -62 -75 -29 -74 -28 -78 11 -71 31 6 27
2 -23 -16 -20 -7 -22 -11 -10 -18 13 -8 13 -10 -1 -10 -14 0 -45 -47 -37 -56
2 -1 35 3 73 11 40 7 71 9 73 4 6 -14 42 -10 42 5 0 9 25 17 75 26 41 7 75 17
75 21 0 5 -28 10 -62 11 l-63 1 54 6 54 6 -27 32 -27 32 -45 -16 c-25 -8 -47
-13 -50 -11 -2 3 15 11 40 18 69 19 51 40 -38 42 l-71 2 63 3 62 4 -27 34
c-16 19 -30 35 -33 34 -3 0 -23 -9 -46 -19z m43 -177 c-20 -2 -52 -2 -70 0
-17 2 0 4 38 4 39 0 53 -2 32 -4z"/>
<path d="M2490 4225 c-206 -112 -379 -211 -385 -219 -5 -8 -6 -18 -2 -22 5 -5
919 226 996 252 8 2 -35 43 -105 99 -66 52 -121 95 -124 95 -3 0 -174 -92
-380 -205z"/>
<path d="M7185 4221 c-230 -126 -381 -215 -383 -225 -2 -9 2 -16 9 -16 20 0
983 252 992 259 7 7 -216 192 -230 190 -5 0 -179 -94 -388 -208z"/>
<path d="M11893 4222 c-277 -150 -383 -212 -383 -224 0 -10 4 -18 10 -18 9 0
847 217 948 246 l54 15 -117 92 c-65 51 -120 93 -124 94 -3 2 -178 -91 -388
-205z"/>
<path d="M2613 4081 l-521 -136 -17 -108 c-9 -60 -15 -110 -13 -113 3 -2 114
39 248 91 255 100 252 100 266 48 7 -27 10 -28 60 -7 22 9 49 20 62 25 22 8
22 10 7 45 -8 21 -14 38 -13 39 2 1 115 46 253 99 137 54 252 99 254 102 5 4
-21 27 -49 43 -10 6 -194 -38 -537 -128z"/>
<path d="M7315 4082 l-520 -137 -17 -110 c-9 -60 -15 -111 -14 -113 2 -2 365
137 484 185 7 3 18 -10 27 -31 17 -41 18 -41 104 -4 32 13 41 22 37 34 -24 62
-37 53 223 154 132 51 246 97 253 101 10 7 6 15 -17 34 -16 13 -32 24 -35 24
-3 -1 -239 -62 -525 -137z"/>
<path d="M12020 4082 c-283 -74 -516 -136 -518 -138 -6 -4 -35 -215 -30 -219
2 -2 106 36 231 85 125 49 236 91 246 95 15 5 22 -1 31 -30 13 -40 14 -41 66
-19 22 9 49 20 61 25 22 8 22 10 7 45 -8 20 -14 37 -12 39 2 1 117 47 256 101
l254 98 -31 28 c-17 16 -35 27 -39 27 -4 -1 -239 -62 -522 -137z"/>
<path d="M1571 3944 c-11 -24 -8 -44 7 -44 7 0 32 48 32 62 0 19 -28 6 -39
-18z"/>
<path d="M6280 3951 c0 -11 -6 -22 -12 -24 -10 -4 -9 -8 2 -16 21 -15 30 -14
24 2 -3 8 2 20 10 27 18 14 12 30 -10 30 -8 0 -14 -9 -14 -19z"/>
<path d="M10981 3944 c-9 -20 -9 -29 0 -41 11 -12 14 -9 24 19 18 51 -2 70
-24 22z"/>
<path d="M1506 3891 l-29 -19 42 -12 c23 -6 49 -14 57 -17 23 -9 17 34 -8 51
-28 20 -27 20 -62 -3z"/>
<path d="M6211 3891 l-24 -18 48 -17 c60 -20 65 -20 65 0 0 17 -38 53 -55 53
-5 1 -21 -8 -34 -18z"/>
<path d="M10916 3891 l-29 -19 53 -16 c65 -20 60 -20 60 3 0 17 -34 51 -50 51
-3 0 -18 -9 -34 -19z"/>
<path d="M1437 3846 c-17 -13 -14 -17 40 -57 32 -23 73 -53 91 -66 l33 -25 -3
63 -3 62 -50 18 c-61 21 -85 22 -108 5z"/>
<path d="M6144 3846 c-10 -8 -16 -17 -13 -20 12 -12 173 -125 175 -123 2 1 0
30 -3 63 l-6 61 -58 17 c-71 19 -70 19 -95 2z"/>
<path d="M10845 3844 c-17 -13 -18 -16 -5 -24 8 -5 49 -33 90 -63 l75 -55 3
31 c2 17 1 45 -2 63 -6 29 -12 33 -64 48 -70 19 -72 19 -97 0z"/>
<path d="M1348 3787 c-26 -18 -48 -34 -48 -37 0 -7 303 -111 308 -106 14 15
-21 52 -102 110 -52 36 -98 66 -102 65 -5 0 -30 -15 -56 -32z"/>
<path d="M6051 3785 l-54 -34 29 -11 c16 -7 79 -29 139 -50 61 -21 118 -41
128 -45 13 -6 17 -2 17 16 0 19 -21 38 -90 87 -50 34 -96 65 -103 67 -6 3 -36
-11 -66 -30z"/>
<path d="M10758 3787 c-26 -18 -48 -34 -48 -37 0 -3 68 -28 150 -57 148 -51
150 -52 150 -29 0 17 -22 39 -94 89 -52 37 -98 67 -102 66 -5 0 -30 -15 -56
-32z"/>
<path d="M3216 3778 c8 -27 12 -33 19 -27 7 8 -7 49 -17 49 -5 0 -6 -10 -2
-22z"/>
<path d="M7914 3784 c3 -9 6 -20 6 -25 0 -5 6 -9 14 -9 9 0 12 8 8 25 -2 14
-11 25 -19 25 -10 0 -13 -6 -9 -16z"/>
<path d="M12626 3778 c8 -27 12 -33 19 -27 7 8 -7 49 -17 49 -5 0 -6 -10 -2
-22z"/>
<path d="M1276 3731 c10 -9 189 -128 277 -184 l57 -37 0 58 0 57 -162 58
c-163 57 -191 65 -172 48z"/>
<path d="M3203 3723 c-4 -10 -1 -19 6 -21 8 -3 5 -9 -8 -19 -34 -23 -26 -41
22 -46 l42 -4 -46 -1 c-45 -2 -48 -4 -63 -43 -9 -22 -14 -45 -11 -50 4 -5 0
-10 -7 -10 -7 -1 5 -5 27 -9 l40 -7 -38 -2 c-31 -1 -39 -6 -48 -27 -5 -15 -8
-28 -6 -30 2 -2 36 2 75 10 40 8 72 10 72 5 0 -5 9 -9 20 -9 11 0 20 6 20 14
0 9 24 17 75 25 80 13 91 30 22 32 l-42 2 38 6 39 6 -31 30 -31 29 -86 -28
c-47 -15 -87 -26 -89 -24 -3 2 34 17 81 32 87 28 104 48 48 55 -23 3 -25 5
-11 10 17 6 17 8 -4 35 -18 23 -27 27 -53 22 -29 -5 -30 -5 -8 7 12 7 19 16
16 20 -14 13 -55 7 -61 -10z m104 -200 c-20 -2 -52 -2 -70 0 -17 2 0 4 38 4
39 0 53 -2 32 -4z"/>
<path d="M5981 3734 c1 -11 330 -227 336 -220 3 2 2 29 -2 59 l-7 55 -152 53
c-83 29 -157 54 -163 57 -7 2 -13 0 -12 -4z"/>
<path d="M7902 3708 c-6 -18 -13 -41 -17 -50 -5 -14 1 -17 37 -21 l43 -4 -46
-1 c-44 -2 -46 -3 -57 -41 -7 -21 -12 -41 -12 -44 0 -3 26 3 57 14 31 10 61
18 66 16 5 -1 -24 -13 -65 -27 -72 -24 -73 -24 -38 -31 l35 -6 -37 -2 c-31 -1
-38 -5 -47 -31 l-10 -31 37 7 c20 3 54 10 75 14 21 4 37 4 37 -1 0 -5 11 -9
25 -9 14 0 24 5 23 12 -2 7 25 17 70 26 80 16 94 31 30 34 -38 1 -39 2 -10 5
l32 4 -20 30 c-12 16 -31 29 -43 30 -12 0 -16 3 -9 6 19 7 -5 33 -32 34 -18 0
-19 1 -3 7 16 7 15 11 -12 36 -27 26 -32 27 -62 17 -18 -6 -34 -9 -36 -7 -2 2
10 8 26 14 39 14 40 32 1 32 -24 0 -31 -5 -38 -32z m115 -185 c-20 -2 -52 -2
-70 0 -17 2 0 4 38 4 39 0 53 -2 32 -4z"/>
<path d="M10686 3731 c5 -6 81 -57 169 -115 l160 -105 3 51 c2 28 -1 55 -5 59
-9 9 -314 119 -329 119 -4 0 -4 -4 2 -9z"/>
<path d="M12610 3720 c-9 -16 -8 -20 7 -21 15 0 14 -2 -4 -11 -38 -18 -29 -46
15 -51 l37 -4 -43 -1 c-44 -2 -46 -4 -66 -69 -6 -18 -3 -21 16 -17 16 3 13 0
-7 -8 l-30 -12 35 -7 35 -6 -36 -2 c-31 -1 -38 -5 -43 -27 -4 -15 -5 -28 -3
-31 2 -2 26 1 53 7 27 6 68 9 92 5 33 -5 42 -3 42 8 0 10 15 17 45 21 46 7 62
30 28 39 -17 4 -17 5 0 6 21 1 24 49 2 57 -8 3 -44 -4 -80 -16 -37 -12 -68
-20 -70 -18 -3 2 27 14 66 27 74 24 85 41 33 52 -16 4 -21 7 -11 8 16 1 15 4
-5 32 -19 26 -28 30 -53 25 -29 -5 -29 -5 -7 7 26 15 19 27 -14 27 -13 0 -28
-9 -34 -20z m107 -197 c-20 -2 -52 -2 -70 0 -17 2 0 4 38 4 39 0 53 -2 32 -4z"/>
<path d="M1217 3697 l-28 -22 90 -45 c72 -35 90 -48 86 -61 -8 -25 28 -44 53
-28 15 9 34 3 110 -35 150 -75 112 -30 -83 98 -97 64 -181 116 -188 116 -7 0
-25 -10 -40 -23z"/>
<path d="M5921 3698 l-34 -22 92 -45 c69 -35 91 -50 88 -62 -6 -23 42 -46 54
-27 6 10 31 2 104 -34 78 -40 95 -45 94 -30 0 11 -61 57 -173 130 -96 61 -177
112 -182 112 -5 0 -24 -10 -43 -22z"/>
<path d="M10628 3703 c-16 -10 -28 -21 -28 -25 0 -4 40 -28 90 -53 63 -32 88
-49 84 -59 -8 -21 35 -43 47 -25 6 11 29 4 105 -34 53 -26 98 -46 100 -44 13
13 -24 43 -172 141 -92 60 -174 110 -183 112 -9 2 -28 -4 -43 -13z"/>
<path d="M4377 3553 c-3 -5 -5 -20 -5 -35 0 -21 5 -28 20 -28 13 0 17 4 11 13
-4 6 -6 19 -5 29 3 17 -13 34 -21 21z"/>
<path d="M9079 3558 c-8 -44 -5 -68 10 -68 12 0 16 9 15 32 0 18 -6 34 -12 36
-7 2 -12 2 -13 0z"/>
<path d="M313 3505 c0 -14 5 -25 12 -25 8 0 10 9 7 25 -2 14 -8 25 -12 25 -4
0 -7 -11 -7 -25z"/>
<path d="M5020 3505 c0 -14 4 -25 9 -25 5 0 9 11 9 25 0 14 -4 25 -9 25 -5 0
-9 -11 -9 -25z"/>
<path d="M9720 3507 c0 -12 -7 -33 -16 -45 -20 -29 -16 -33 28 -26 40 7 43 33
4 35 -14 1 -16 3 -5 6 11 3 15 12 11 28 -6 31 -22 33 -22 2z"/>
<path d="M2841 3502 c-6 -12 -21 -22 -33 -22 -20 0 -20 -1 -3 -20 9 -10 15
-26 12 -35 -4 -9 -1 -15 8 -15 19 0 19 -2 -5 -44 l-21 -34 51 -11 c73 -16 72
-16 39 40 -20 35 -25 50 -14 46 11 -5 15 0 15 18 0 13 5 27 10 30 16 10 11 25
-8 25 -11 0 -23 10 -29 22 l-10 23 -12 -23z"/>
<path d="M7546 3502 c-4 -13 -15 -22 -27 -22 -20 0 -26 -15 -9 -25 6 -3 10
-18 10 -32 0 -21 2 -24 15 -13 20 17 19 7 -5 -32 -11 -18 -20 -36 -20 -40 0
-8 20 -14 74 -24 l39 -7 -27 49 c-16 28 -23 50 -17 52 6 2 11 11 11 20 0 8 7
24 17 34 15 17 15 18 -4 18 -11 0 -27 10 -35 22 l-15 23 -7 -23z"/>
<path d="M12246 3495 c-3 -8 -15 -15 -27 -15 -21 0 -21 -1 -5 -19 11 -13 15
-27 11 -40 -5 -17 -3 -20 11 -14 16 6 16 2 -4 -31 -12 -20 -22 -39 -22 -41 0
-6 101 -27 107 -22 3 4 -7 27 -22 53 -22 38 -24 46 -10 40 14 -5 16 -2 12 16
-4 14 0 29 10 40 15 17 15 18 -6 18 -12 0 -24 7 -27 15 -4 8 -10 15 -14 15 -4
0 -10 -7 -14 -15z"/>
<path d="M4337 3449 l-17 -31 42 7 c24 3 52 9 62 12 19 5 19 6 -3 24 -34 28
-63 24 -84 -12z"/>
<path d="M9047 3456 c-9 -14 -17 -28 -17 -32 0 -7 79 5 97 15 19 10 0 30 -33
37 -25 5 -33 1 -47 -20z"/>
<path d="M290 3449 c-11 -19 -9 -20 27 -13 45 8 47 9 38 23 -11 19 -54 12 -65
-10z"/>
<path d="M4993 3451 c-10 -16 -10 -20 5 -24 13 -4 12 -5 -4 -6 -12 0 -25 -8
-28 -17 -8 -22 -8 -22 12 -27 11 -3 9 -5 -8 -6 -18 -1 -31 -12 -47 -40 l-23
-40 28 -4 c24 -4 23 -4 -8 -6 -33 -3 -33 -4 -10 -11 l25 -8 -27 -1 c-26 -1
-48 -25 -48 -50 0 -7 28 -11 74 -11 50 0 76 -4 79 -12 3 -10 9 -10 26 0 11 6
53 12 92 12 52 0 70 3 67 13 -3 6 -24 15 -49 18 l-44 6 37 1 38 2 -17 35 c-11
23 -24 35 -37 35 -16 0 -18 2 -7 9 20 13 4 31 -27 32 -24 2 -25 2 -4 6 13 3
22 8 20 11 -2 4 -10 19 -17 35 -11 20 -22 27 -45 28 -25 1 -26 3 -8 6 29 6 23
27 -9 31 -15 2 -28 -4 -36 -17z m55 -88 c-10 -2 -26 -2 -35 0 -10 3 -2 5 17 5
19 0 27 -2 18 -5z m40 -60 c-10 -2 -28 -2 -40 0 -13 2 -5 4 17 4 22 1 32 -1
23 -4z m-80 -10 c-10 -2 -26 -2 -35 0 -10 3 -2 5 17 5 19 0 27 -2 18 -5z m-10
-40 c-10 -2 -28 -2 -40 0 -13 2 -5 4 17 4 22 1 32 -1 23 -4z m85 -10 c-13 -2
-33 -2 -45 0 -13 2 -3 4 22 4 25 0 35 -2 23 -4z"/>
<path d="M1963 3443 c-9 -3 -10 -10 -3 -22 5 -10 6 -21 2 -25 -3 -4 0 -11 8
-16 23 -15 32 -12 22 6 -5 9 -7 25 -5 34 5 20 -6 30 -24 23z"/>
<path d="M6665 3437 c-10 -28 5 -66 26 -67 3 0 5 16 5 35 -1 34 -23 57 -31 32z"/>
<path d="M11375 3442 c-11 -8 -14 -62 -4 -62 4 0 16 -3 26 -7 15 -6 16 -4 6 8
-7 8 -10 24 -7 36 6 22 -6 36 -21 25z"/>
<path d="M292 3423 c-12 -2 -27 -13 -32 -23 -8 -15 -6 -19 13 -23 19 -4 19 -4
-5 -6 -19 -1 -32 -11 -47 -37 -26 -43 -26 -42 2 -47 18 -3 16 -5 -8 -6 -26 -2
-27 -3 -10 -11 19 -8 19 -9 -2 -9 -20 -1 -53 -34 -53 -53 0 -5 34 -8 75 -8 43
0 75 -4 75 -10 0 -5 9 -10 20 -10 11 0 20 5 20 10 0 6 32 10 75 10 60 0 75 3
75 15 0 11 -12 15 -42 16 l-43 2 37 6 37 6 -20 33 c-12 17 -28 32 -37 33 -10
0 -12 3 -5 5 22 10 1 34 -31 35 -31 1 -31 1 -4 8 l27 6 -20 33 c-21 32 -37 36
-97 25z m51 -60 c-7 -2 -21 -2 -30 0 -10 3 -4 5 12 5 17 0 24 -2 18 -5z m45
-60 c-10 -2 -28 -2 -40 0 -13 2 -5 4 17 4 22 1 32 -1 23 -4z m-80 -10 c-10 -2
-28 -2 -40 0 -13 2 -5 4 17 4 22 1 32 -1 23 -4z m-15 -40 c-13 -2 -33 -2 -45
0 -13 2 -3 4 22 4 25 0 35 -2 23 -4z m85 -10 c-10 -2 -28 -2 -40 0 -13 2 -5 4
17 4 22 1 32 -1 23 -4z"/>
<path d="M4377 3416 c-53 -10 -87 -32 -87 -57 0 -3 35 -12 78 -18 42 -7 92
-15 110 -18 l32 -5 -32 56 c-18 30 -35 55 -38 55 -3 -1 -31 -6 -63 -13z"/>
<path d="M9078 3416 c-41 -8 -62 -18 -74 -34 -9 -13 -14 -25 -13 -27 6 -4 211
-36 215 -32 5 4 -57 107 -64 106 -4 -1 -33 -7 -64 -13z"/>
<path d="M9705 3423 c-45 -11 -59 -39 -22 -46 19 -4 19 -4 -5 -6 -18 -1 -33
-11 -47 -35 -26 -42 -26 -44 2 -49 18 -3 16 -5 -8 -6 -26 -2 -27 -3 -10 -11
18 -8 18 -9 -6 -9 -22 -1 -49 -32 -49 -56 0 -3 34 -5 75 -5 43 0 75 -4 75 -10
0 -13 37 -13 42 -1 2 6 36 11 76 12 82 2 94 20 21 30 l-44 6 42 1 42 2 -20 35
c-12 19 -28 35 -37 36 -10 0 -12 3 -5 5 22 10 1 34 -31 35 -29 2 -29 2 -4 6
l27 4 -21 35 c-20 34 -39 40 -93 27z m48 -60 c-7 -2 -21 -2 -30 0 -10 3 -4 5
12 5 17 0 24 -2 18 -5z m45 -60 c-10 -2 -28 -2 -40 0 -13 2 -5 4 17 4 22 1 32
-1 23 -4z m-80 -10 c-10 -2 -28 -2 -40 0 -13 2 -5 4 17 4 22 1 32 -1 23 -4z
m-15 -40 c-13 -2 -33 -2 -45 0 -13 2 -3 4 22 4 25 0 35 -2 23 -4z m85 -10
c-10 -2 -28 -2 -40 0 -13 2 -5 4 17 4 22 1 32 -1 23 -4z"/>
<path d="M1928 3340 c-16 -28 -16 -30 0 -30 44 0 92 14 92 26 0 16 -7 20 -45
28 -26 5 -32 2 -47 -24z"/>
<path d="M6634 3339 l-16 -32 53 7 c30 4 56 9 58 12 8 8 -23 31 -51 38 -23 5
-30 2 -44 -25z"/>
<path d="M11339 3342 c-7 -15 -15 -30 -16 -33 -2 -3 21 -1 52 4 30 6 55 13 55
16 -1 16 -18 28 -46 34 -27 5 -33 2 -45 -21z"/>
<path d="M4243 3285 c-38 -65 -51 -61 145 -38 139 17 161 25 130 50 -12 9
-197 43 -230 43 -7 0 -27 -25 -45 -55z"/>
<path d="M8951 3289 c-18 -31 -26 -56 -20 -58 11 -3 272 27 297 35 9 3 10 9 3
22 -8 14 -30 22 -93 31 -46 6 -99 14 -120 17 -35 6 -37 5 -67 -47z"/>
<path d="M1943 3299 c-25 -6 -47 -19 -57 -34 -18 -27 -22 -25 104 -45 108 -16
105 -18 74 40 -30 55 -38 57 -121 39z"/>
<path d="M2737 3229 c-26 -45 -46 -83 -44 -85 4 -5 276 42 283 49 7 7 -20 60
-38 74 -7 6 -40 16 -73 23 -33 7 -64 14 -70 16 -5 2 -32 -32 -58 -77z"/>
<path d="M6651 3299 c-24 -4 -49 -16 -57 -26 -25 -33 -26 -33 97 -52 115 -19
114 -19 78 39 -33 54 -37 55 -118 39z"/>
<path d="M7476 3286 c-54 -87 -84 -141 -82 -144 3 -3 225 32 274 44 l24 5 -25
42 c-24 39 -29 42 -101 58 -77 17 -77 17 -90 -5z"/>
<path d="M11355 3299 c-35 -8 -82 -45 -71 -56 5 -5 173 -33 199 -33 16 0 15 5
-10 50 -30 54 -39 57 -118 39z"/>
<path d="M12145 3227 c-26 -43 -45 -81 -43 -83 6 -5 277 42 285 49 3 4 -6 24
-20 45 -23 36 -31 40 -101 54 l-75 15 -46 -80z"/>
<path d="M9077 3234 c-93 -12 -171 -24 -173 -27 -7 -6 36 -13 206 -32 74 -8
150 -18 168 -21 l34 -5 -28 48 c-15 26 -30 51 -33 54 -3 3 -82 -5 -174 -17z"/>
<path d="M4340 3229 c-69 -9 -129 -18 -134 -18 -5 -1 -7 -4 -3 -7 6 -7 390
-54 395 -49 2 2 -8 24 -23 49 -25 43 -29 46 -68 45 -23 -1 -98 -10 -167 -20z"/>
<path d="M1831 3169 l-33 -60 33 5 c38 7 269 36 281 36 4 0 8 3 8 8 -1 24 -28
35 -136 52 -65 11 -119 20 -119 20 0 0 -15 -27 -34 -61z"/>
<path d="M6537 3172 c-19 -31 -33 -58 -32 -60 2 -2 302 36 318 41 4 1 2 10 -5
20 -9 12 -42 22 -103 32 -49 8 -102 17 -117 20 -25 4 -31 -2 -61 -53z"/>
<path d="M11242 3174 c-18 -31 -31 -58 -30 -60 2 -1 68 6 148 16 80 11 151 19
158 20 6 0 12 3 12 8 -1 23 -26 34 -111 47 -52 9 -105 18 -119 20 -22 5 -29
-1 -58 -51z"/>
<path d="M3362 3178 c-18 -18 -15 -44 8 -59 29 -21 41 -164 15 -183 -23 -17
-16 -50 13 -54 34 -5 46 -36 22 -57 -19 -17 -19 -19 -4 -37 19 -20 55 -23 84
-8 16 8 31 -2 96 -66 74 -72 154 -126 154 -104 0 6 -14 70 -31 142 -27 114
-30 136 -20 165 7 18 10 42 6 53 -5 15 -10 17 -30 10 -19 -7 -26 -5 -39 14
-11 17 -12 26 -4 34 17 17 -10 45 -38 38 -30 -8 -164 59 -164 83 0 21 -19 41
-40 41 -9 0 -21 -5 -28 -12z"/>
<path d="M4170 3158 c-11 -18 -20 -36 -20 -40 0 -5 45 -8 100 -8 80 0 102 -3
106 -15 4 -8 17 -15 30 -15 15 0 24 6 24 15 0 12 19 15 112 15 98 0 110 2 98
15 -10 9 -73 21 -190 34 -96 12 -190 23 -207 26 -29 5 -35 2 -53 -27z"/>
<path d="M8066 3174 c-21 -21 -20 -29 6 -54 31 -29 40 -160 13 -190 -15 -16
-15 -22 -5 -35 7 -8 19 -15 28 -15 8 0 21 -8 28 -17 11 -15 10 -20 -8 -34 -42
-33 13 -73 71 -52 24 9 33 3 107 -68 45 -43 96 -85 113 -93 30 -16 31 -16 31
4 0 12 -13 77 -30 146 -22 91 -27 131 -20 144 11 21 13 63 4 73 -3 3 -16 2
-29 -3 -27 -10 -38 6 -39 55 -1 27 -4 30 -36 31 -64 1 -170 60 -170 94 0 16
-18 30 -40 30 -5 0 -16 -7 -24 -16z"/>
<path d="M8870 3150 l-20 -40 105 0 c87 0 105 -3 105 -15 0 -10 10 -15 30 -15
20 0 30 5 30 15 0 12 18 15 105 15 93 0 123 7 97 24 -4 2 -88 14 -187 25 -99
12 -194 24 -212 27 -30 4 -34 1 -53 -36z"/>
<path d="M12772 3178 c-18 -18 -14 -46 8 -58 18 -10 20 -8 20 30 0 41 -7 49
-28 28z"/>
<path d="M2855 3140 c-55 -9 -120 -20 -145 -24 -44 -6 -47 -10 -80 -69 -19
-34 -33 -64 -32 -67 1 -5 555 -100 559 -96 1 1 -33 63 -75 139 -88 156 -67
145 -227 117z"/>
<path d="M7580 3144 c-41 -7 -105 -18 -143 -25 l-67 -11 -35 -59 c-19 -33 -35
-63 -35 -67 0 -7 552 -103 558 -97 2 2 -31 64 -73 139 -87 154 -71 144 -205
120z"/>
<path d="M12280 3145 c-41 -8 -105 -19 -141 -25 l-66 -11 -33 -59 c-18 -32
-32 -62 -32 -67 1 -6 553 -105 558 -99 1 0 -33 62 -75 136 -87 154 -78 149
-211 125z"/>
<path d="M2040 3130 c-30 -5 -99 -14 -152 -20 -54 -7 -98 -15 -98 -19 0 -4 69
-15 153 -25 83 -9 174 -20 201 -23 l49 -6 -29 52 c-31 55 -29 54 -124 41z"/>
<path d="M6740 3130 c-30 -5 -99 -14 -152 -20 -54 -7 -98 -15 -98 -19 0 -8
390 -54 397 -47 3 2 -7 25 -22 50 -29 50 -28 50 -125 36z"/>
<path d="M11485 3135 c-5 -2 -72 -11 -147 -21 -76 -9 -138 -20 -138 -23 0 -6
361 -52 392 -51 5 0 -4 22 -20 50 -26 48 -46 59 -87 45z"/>
<path d="M654 3119 c-3 -6 -17 -8 -30 -5 -22 6 -24 4 -18 -18 3 -13 1 -27 -5
-30 -17 -11 -13 -26 7 -26 10 0 3 -9 -20 -22 -21 -12 -38 -25 -38 -29 0 -9 75
-69 85 -69 4 0 5 25 3 55 -1 30 0 55 5 55 4 0 7 -6 7 -12 1 -7 8 -1 16 15 8
15 22 27 32 27 16 1 16 1 0 14 -10 7 -18 23 -18 35 0 22 -14 28 -26 10z"/>
<path d="M5357 3119 c-9 -6 -25 -8 -35 -5 -14 5 -17 -1 -17 -34 -1 -22 4 -40
9 -40 6 0 -7 -12 -27 -26 -21 -14 -37 -27 -35 -29 14 -15 82 -65 87 -65 3 0 4
25 3 55 -3 47 -2 54 12 49 10 -4 16 -1 16 9 0 9 9 19 21 22 18 6 19 9 6 23 -8
10 -17 25 -18 34 -3 13 -8 15 -22 7z"/>
<path d="M10066 3122 c-5 -9 -17 -11 -33 -7 -23 5 -25 3 -20 -16 4 -13 1 -29
-5 -37 -9 -10 -9 -15 1 -22 10 -5 5 -13 -18 -26 -17 -10 -31 -21 -31 -25 0 -4
21 -24 47 -45 l46 -38 -6 63 c-4 50 -3 60 8 51 9 -8 14 -5 18 10 3 11 15 24
28 28 l23 9 -21 11 c-12 7 -23 22 -25 34 -2 17 -5 20 -12 10z"/>
<path d="M1757 3041 c-9 -16 -17 -32 -17 -35 0 -3 44 -6 99 -6 90 0 99 -2 104
-20 3 -14 14 -20 31 -20 19 0 26 5 26 20 0 19 7 20 106 20 79 0 105 3 102 12
-3 8 -70 20 -194 35 -246 29 -236 29 -257 -6z"/>
<path d="M6460 3038 l-20 -33 101 -3 c91 -2 102 -5 106 -22 7 -27 49 -27 56 0
5 18 14 20 113 20 91 0 106 2 94 13 -12 11 -359 59 -418 57 -7 0 -21 -15 -32
-32z"/>
<path d="M11161 3035 l-20 -35 104 0 c98 0 105 -1 105 -20 0 -15 7 -20 26 -20
17 0 28 6 31 20 5 18 14 20 109 20 80 0 102 3 98 13 -3 8 -69 20 -207 35 -111
12 -207 22 -214 22 -6 0 -20 -16 -32 -35z"/>
<path d="M445 2924 c-39 -26 -74 -50 -78 -54 -6 -5 253 -90 276 -90 15 0 6 79
-10 97 -19 21 -107 93 -114 93 -2 0 -36 -21 -74 -46z"/>
<path d="M5141 2918 c-52 -36 -70 -53 -60 -58 12 -6 70 -24 252 -76 14 -5 17
2 16 43 0 46 -2 50 -54 91 -30 23 -60 44 -67 47 -7 2 -46 -19 -87 -47z"/>
<path d="M9847 2918 c-42 -28 -76 -53 -74 -54 8 -8 279 -85 284 -81 2 3 1 25
-2 50 -6 40 -14 50 -66 91 -32 25 -60 46 -62 46 -1 0 -37 -23 -80 -52z"/>
<path d="M2486 2803 c-47 -80 -85 -147 -84 -149 5 -4 818 93 824 99 11 11 -48
97 -69 102 -31 7 -564 95 -575 95 -5 0 -49 -66 -96 -147z"/>
<path d="M7189 2802 c-48 -81 -86 -148 -85 -149 2 -2 756 84 804 92 l32 6 -27
47 c-14 26 -28 48 -29 50 -2 3 -583 102 -599 102 -5 0 -49 -67 -96 -148z"/>
<path d="M11895 2804 c-48 -80 -85 -147 -83 -149 4 -5 817 91 823 97 3 3 -6
26 -20 51 -18 32 -34 47 -53 51 -54 11 -557 96 -569 96 -7 0 -51 -66 -98 -146z"/>
<path d="M12785 2928 c-4 -10 -4 -26 0 -35 8 -17 8 -17 12 0 3 9 3 25 0 35 -4
16 -4 16 -12 0z"/>
<path d="M257 2800 l-58 -38 33 -25 c144 -108 433 -306 436 -298 4 12 -16 302
-21 307 -7 7 -302 94 -317 93 -8 0 -41 -18 -73 -39z"/>
<path d="M4970 2805 c-30 -19 -55 -38 -55 -44 0 -8 445 -331 456 -331 2 0 0
72 -5 159 l-9 159 -156 46 c-86 25 -160 46 -166 46 -5 0 -35 -16 -65 -35z"/>
<path d="M9668 2802 c-32 -20 -58 -39 -57 -42 0 -8 461 -331 465 -327 4 4 -15
309 -20 314 -6 6 -301 93 -316 93 -8 0 -41 -17 -72 -38z"/>
<path d="M1595 2765 c-3 -8 -7 -21 -9 -29 -8 -25 -118 -81 -161 -81 -38 0 -40
-2 -41 -30 -1 -49 -13 -66 -36 -54 -48 26 -67 -33 -24 -76 l24 -24 -33 -93
c-36 -103 -53 -188 -37 -188 5 0 60 38 121 85 79 60 119 85 139 85 15 0 37 6
47 14 19 14 19 15 2 34 -16 17 -16 23 -5 41 7 12 21 21 31 21 23 0 33 28 19
51 -7 10 -12 50 -12 88 0 53 4 74 20 94 11 14 20 31 20 39 0 34 -56 53 -65 23z"/>
<path d="M6302 2768 c-7 -7 -12 -20 -12 -29 0 -24 -131 -92 -163 -84 -29 8
-55 -18 -39 -38 18 -22 -10 -48 -46 -41 -24 5 -31 2 -37 -14 -7 -23 19 -82 36
-82 14 0 9 -22 -30 -130 -27 -76 -41 -160 -25 -160 3 0 56 38 117 85 73 55
120 85 137 85 14 0 36 7 48 16 22 15 22 17 7 34 -13 15 -14 23 -5 39 6 12 19
21 29 21 27 0 34 27 15 56 -13 19 -16 40 -12 96 5 59 9 74 29 89 20 15 22 20
11 43 -12 28 -40 34 -60 14z"/>
<path d="M11001 2763 c-5 -10 -9 -22 -8 -28 1 -5 -28 -27 -63 -47 -45 -27 -73
-36 -99 -35 -32 2 -36 -1 -37 -23 0 -14 -4 -35 -8 -47 -6 -19 -11 -21 -26 -13
-36 19 -50 12 -50 -24 0 -25 7 -40 25 -55 l26 -19 -26 -64 c-44 -108 -67 -218
-46 -218 5 0 58 38 117 85 79 62 117 85 138 85 16 0 38 7 48 17 17 15 17 18 2
34 -13 14 -13 20 -2 38 7 12 21 21 31 21 23 0 33 28 19 51 -7 10 -12 50 -12
88 0 53 4 74 20 94 23 29 25 48 8 65 -17 17 -46 15 -57 -5z"/>
<path d="M83 2685 l-83 -55 0 -60 c0 -33 1 -60 3 -60 1 0 153 -54 337 -119
372 -130 350 -128 335 -37 -6 40 -10 44 -247 211 -132 94 -245 171 -252 173
-6 1 -48 -23 -93 -53z"/>
<path d="M4727 2646 l-139 -94 44 -16 c24 -9 202 -71 396 -139 l352 -124 0 58
0 57 -242 173 c-134 95 -250 174 -258 175 -8 2 -77 -39 -153 -90z"/>
<path d="M9442 2651 c-74 -49 -133 -93 -132 -97 0 -5 175 -70 388 -145 430
-151 404 -148 384 -54 -8 38 -18 47 -247 212 -132 94 -244 172 -250 172 -5 1
-70 -39 -143 -88z"/>
<path d="M2781 2670 c-281 -34 -406 -52 -412 -62 -6 -8 -3 -15 9 -20 23 -9
988 -130 1005 -126 10 2 -7 42 -57 130 -70 126 -71 127 -106 127 -19 -1 -217
-23 -439 -49z"/>
<path d="M7487 2670 c-219 -26 -404 -53 -410 -59 -7 -7 -7 -14 -1 -19 10 -10
996 -136 1013 -131 6 2 -21 61 -60 132 l-71 127 -37 -1 c-20 -1 -215 -23 -434
-49z"/>
<path d="M12191 2670 c-285 -34 -406 -52 -412 -62 -6 -8 -3 -15 9 -20 27 -11
1002 -132 1009 -125 3 4 -26 62 -64 129 -67 118 -72 123 -104 125 -19 1 -216
-20 -438 -47z"/>
<path d="M2287 2467 c-31 -53 -57 -98 -57 -101 0 -3 119 -6 265 -6 l265 0 0
-40 0 -40 75 0 75 0 0 40 0 41 277 -7 276 -7 -22 39 -22 40 -502 63 c-276 35
-518 66 -538 68 -35 5 -35 5 -92 -90z"/>
<path d="M6988 2462 l-57 -97 269 -3 270 -2 0 -40 0 -40 70 0 70 0 0 40 0 41
275 -7 c151 -4 275 -4 275 1 0 4 -9 22 -20 39 l-19 32 -533 67 c-293 37 -535
67 -538 67 -3 0 -31 -44 -62 -98z"/>
<path d="M11695 2466 c-30 -52 -55 -97 -55 -100 0 -3 119 -6 265 -6 l265 0 0
-40 0 -40 69 0 70 0 3 38 3 37 243 -4 242 -3 0 41 c0 22 -3 41 -6 41 -3 0
-235 29 -514 65 -279 36 -513 65 -519 65 -6 0 -35 -42 -66 -94z"/>
<path d="M4540 2520 c-13 -9 -13 -11 0 -19 8 -5 202 -132 430 -281 228 -150
419 -274 425 -276 7 -3 7 46 0 148 l-10 151 -405 143 c-223 79 -409 143 -415
143 -5 1 -17 -4 -25 -9z"/>
<path d="M9241 2521 c-11 -7 11 -26 85 -74 54 -35 251 -164 438 -286 186 -122
340 -220 342 -218 7 7 -16 291 -24 299 -8 7 -805 288 -819 288 -4 0 -14 -4
-22 -9z"/>
<path d="M4400 2429 l-95 -61 242 -122 242 -121 -14 -25 c-23 -40 -18 -48 45
-80 l60 -30 17 35 c9 19 19 35 23 35 3 0 115 -54 248 -120 l243 -120 -3 42 -3
41 -448 293 c-247 162 -451 294 -455 294 -4 0 -50 -28 -102 -61z"/>
<path d="M9108 2432 c-48 -31 -88 -59 -88 -62 0 -3 104 -57 231 -120 127 -63
233 -118 235 -122 3 -4 -2 -21 -11 -39 -9 -17 -15 -32 -13 -34 2 -1 31 -16 64
-33 l62 -31 12 30 c7 16 16 32 21 35 4 2 117 -50 250 -116 132 -67 242 -120
243 -118 2 2 1 21 -2 43 l-4 40 -448 293 c-246 160 -451 292 -456 292 -5 0
-48 -26 -96 -58z"/>
<path d="M0 2438 l0 -44 346 -227 c191 -125 349 -226 351 -223 5 4 -13 296
-19 300 -1 1 -149 54 -328 116 -179 62 -331 115 -337 118 -9 3 -13 -9 -13 -40z"/>
<path d="M0 2266 l0 -96 40 -20 c22 -11 40 -23 40 -26 0 -3 -7 -19 -16 -35 -8
-17 -14 -32 -12 -34 2 -1 31 -16 64 -33 l62 -31 12 30 c7 16 16 32 21 35 4 2
117 -50 250 -116 132 -67 243 -119 246 -116 3 2 2 22 -2 43 -6 37 -12 42 -327
248 -177 116 -334 218 -349 228 l-29 19 0 -96z"/>
<path d="M4112 2224 c-14 -10 -22 -25 -22 -44 0 -27 -7 -34 -92 -76 -136 -68
-192 -86 -215 -69 -25 20 -57 18 -76 -3 -19 -21 -22 -57 -7 -67 15 -9 12 -17
-19 -53 l-28 -33 -34 20 c-49 30 -66 27 -79 -15 -18 -53 -5 -97 40 -138 l39
-35 -59 -123 c-32 -68 -71 -159 -85 -203 -26 -77 -44 -185 -31 -185 7 0 320
203 404 262 49 33 58 36 101 31 34 -4 57 -1 80 11 45 24 49 42 16 76 l-28 29
27 31 c14 17 26 36 26 41 0 6 9 5 21 -1 16 -9 26 -8 43 4 33 21 38 51 14 81
-19 24 -20 36 -15 143 5 122 21 192 44 192 22 0 53 38 53 65 0 32 -41 75 -72
75 -13 0 -34 -7 -46 -16z"/>
<path d="M8810 2220 c-11 -11 -20 -31 -20 -45 0 -30 -49 -61 -187 -117 -87
-36 -95 -38 -115 -23 -33 23 -65 19 -85 -11 -15 -24 -15 -29 -2 -53 13 -23 13
-28 -2 -42 -9 -9 -21 -24 -26 -34 -9 -15 -13 -15 -57 7 -47 22 -48 22 -62 4
-8 -11 -14 -42 -14 -69 0 -45 4 -54 40 -88 l40 -38 -59 -128 c-88 -192 -132
-336 -113 -369 6 -11 61 21 232 133 l223 147 64 1 c54 0 66 4 89 26 l26 26
-31 35 -30 35 24 23 c14 13 25 30 25 37 0 11 4 11 21 2 18 -9 26 -7 48 8 34
26 38 56 10 82 -20 19 -21 26 -17 123 7 144 22 192 64 217 28 17 34 26 34 55
0 63 -77 99 -120 56z"/>
<path d="M2356 2215 c-12 -12 -13 -21 -4 -40 9 -20 5 -35 -20 -89 -20 -44 -40
-70 -56 -78 -29 -13 -37 -58 -11 -58 10 0 15 -10 15 -30 0 -25 -4 -30 -23 -30
-34 0 -38 -9 -21 -41 8 -17 25 -31 42 -35 15 -3 31 -7 36 -8 5 -1 19 -39 32
-85 27 -92 63 -173 80 -178 6 -2 14 9 18 24 3 15 21 78 39 140 26 87 39 117
60 133 33 26 36 57 5 62 -29 4 -37 44 -12 62 22 16 13 43 -19 55 -35 14 -100
114 -99 153 1 53 -30 75 -62 43z"/>
<path d="M7060 2215 c-7 -8 -9 -26 -5 -44 9 -41 -39 -149 -72 -162 -31 -12
-41 -39 -20 -54 25 -18 22 -65 -3 -65 -11 0 -23 -7 -27 -17 -8 -21 39 -63 71
-63 20 0 25 -10 44 -80 24 -88 68 -190 83 -190 5 0 9 1 9 3 0 2 18 64 40 138
30 98 47 139 65 154 32 27 37 59 9 63 -26 4 -39 58 -17 66 22 9 15 46 -11 55
-23 9 -72 65 -95 109 -7 13 -10 35 -6 49 11 44 -37 72 -65 38z"/>
<path d="M11766 2214 c-19 -18 -20 -26 -6 -40 22 -22 -37 -147 -80 -169 -35
-18 -37 -29 -10 -52 30 -26 26 -61 -7 -65 -14 -2 -28 -8 -30 -14 -6 -20 32
-55 66 -63 33 -6 35 -9 57 -89 24 -90 63 -176 79 -175 6 1 28 61 50 135 30 99
47 140 68 160 33 33 35 56 5 60 -28 4 -36 41 -13 64 20 21 15 36 -17 51 -47
24 -111 125 -101 162 6 23 -12 51 -33 51 -7 0 -20 -7 -28 -16z"/>
<path d="M2917 2043 c-3 -5 -2 -15 3 -23 4 -7 6 -19 3 -27 -3 -8 3 -13 17 -13
18 0 20 3 11 14 -7 8 -11 22 -9 32 3 18 -16 31 -25 17z"/>
<path d="M7623 2043 c-10 -3 -10 -10 -2 -24 5 -11 7 -24 4 -29 -3 -6 2 -10 13
-10 15 0 18 6 14 30 -5 33 -11 40 -29 33z"/>
<path d="M12326 2042 c-2 -4 -2 -19 1 -35 4 -19 11 -27 25 -27 17 0 18 3 8 15
-7 8 -10 21 -7 29 6 15 -19 31 -27 18z"/>
<path d="M2896 1938 c-7 -18 -13 -34 -12 -35 5 -6 106 30 106 38 0 10 -42 29
-66 29 -7 0 -20 -15 -28 -32z"/>
<path d="M7601 1938 c-6 -17 -10 -32 -9 -34 2 -1 28 6 58 15 l55 17 -25 17
c-39 27 -66 22 -79 -15z"/>
<path d="M12305 1939 c-9 -17 -15 -33 -13 -35 7 -6 108 29 108 38 0 9 -44 28
-65 28 -8 0 -22 -14 -30 -31z"/>
<path d="M1172 1908 c-12 -6 -25 -23 -28 -37 -3 -14 -7 -31 -9 -38 -5 -15
-137 -82 -221 -113 -59 -21 -63 -21 -88 -5 -22 14 -32 16 -51 7 -31 -14 -43
-57 -22 -80 14 -15 13 -20 -14 -50 l-30 -33 -44 21 c-25 12 -49 19 -54 15 -6
-3 -16 -23 -22 -45 -10 -33 -9 -44 11 -84 12 -25 25 -46 28 -46 4 0 15 -7 25
-14 16 -12 14 -20 -29 -112 -95 -203 -151 -381 -127 -405 8 -8 332 193 429
266 26 20 37 23 63 15 48 -13 131 18 131 49 0 8 -12 27 -26 42 l-26 27 28 36
c23 28 33 34 55 29 19 -4 32 1 48 18 26 28 26 40 1 72 -16 20 -20 40 -20 107
0 100 25 219 48 227 65 23 71 97 11 128 -32 17 -36 17 -67 3z"/>
<path d="M2926 1901 c-31 -11 -53 -26 -62 -42 l-13 -26 107 -6 c59 -3 109 -4
111 -2 8 8 -64 95 -78 94 -9 0 -38 -8 -65 -18z"/>
<path d="M5866 1896 c-15 -14 -26 -35 -26 -48 0 -27 -48 -57 -185 -113 -88
-37 -90 -37 -122 -20 -37 20 -55 16 -79 -19 -15 -24 -15 -28 -1 -50 15 -22 15
-25 -3 -41 -11 -10 -22 -25 -25 -35 -5 -16 -10 -15 -55 9 -63 33 -75 23 -75
-60 0 -57 2 -62 38 -96 l38 -35 -60 -132 c-73 -161 -111 -274 -111 -332 0 -24
2 -44 5 -44 7 0 269 169 376 241 76 52 89 58 115 50 34 -10 97 7 122 33 13 13
13 18 -2 41 -9 14 -24 29 -32 32 -11 4 -9 11 11 35 14 16 25 34 25 39 0 6 14
7 34 4 28 -6 36 -3 50 16 22 32 20 54 -5 78 -21 19 -22 26 -15 125 8 133 28
202 59 210 45 11 55 81 15 113 -31 26 -66 26 -92 -1z"/>
<path d="M7635 1904 c-49 -15 -75 -36 -75 -59 0 -8 36 -14 107 -18 59 -3 109
-5 110 -3 7 6 -69 96 -80 95 -7 0 -34 -7 -62 -15z"/>
<path d="M10583 1910 c-13 -5 -25 -21 -29 -37 -3 -15 -7 -33 -9 -39 -4 -14
-143 -86 -221 -114 -59 -21 -63 -21 -88 -5 -22 14 -32 16 -51 7 -28 -13 -42
-52 -27 -78 7 -12 3 -27 -15 -54 l-25 -38 -42 24 c-22 13 -46 24 -53 24 -17 0
-36 -67 -29 -105 7 -33 48 -87 74 -96 9 -3 -3 -38 -42 -119 -68 -144 -114
-275 -123 -347 -5 -49 -4 -56 9 -50 21 7 314 197 394 253 54 39 64 43 92 34
37 -10 86 1 113 26 25 23 24 33 -7 65 l-27 28 28 33 c20 24 36 33 58 33 21 0
36 8 50 27 l21 28 -23 31 c-22 29 -23 38 -18 143 6 135 18 181 55 198 54 26
52 101 -5 127 -28 13 -30 13 -60 1z"/>
<path d="M12334 1903 c-37 -11 -55 -22 -63 -40 -7 -14 -10 -27 -9 -28 6 -4
218 -14 218 -10 0 3 -14 25 -32 50 -35 49 -38 50 -114 28z"/>
<path d="M1580 1842 c0 -15 -5 -33 -12 -40 -9 -9 -7 -12 10 -12 11 0 26 -8 31
-17 9 -15 12 -16 20 -4 7 10 11 2 16 -32 4 -26 9 -47 11 -47 3 0 28 12 57 26
l52 27 -53 20 c-48 18 -68 37 -40 37 6 0 4 6 -7 14 -12 8 -16 20 -12 35 6 23
-3 27 -20 10 -8 -8 -17 -8 -32 0 -19 11 -21 9 -21 -17z"/>
<path d="M6285 1850 c4 -14 1 -28 -11 -41 -16 -18 -16 -19 8 -19 16 0 29 -8
36 -22 6 -13 11 -17 11 -10 1 6 6 12 11 12 6 0 10 -18 10 -40 0 -22 3 -40 6
-40 14 0 104 43 104 50 0 4 -22 16 -50 26 -37 13 -47 21 -39 30 7 8 7 14 -1
19 -5 3 -10 17 -10 31 0 22 -3 23 -20 14 -14 -8 -26 -8 -41 1 -19 10 -20 9
-14 -11z"/>
<path d="M10990 1846 c0 -14 -4 -28 -10 -31 -17 -10 -11 -25 10 -25 10 0 24
-8 29 -17 9 -15 12 -15 20 -4 6 9 11 -1 15 -33 4 -25 9 -46 12 -46 3 0 28 12
57 26 l52 27 -53 20 c-35 13 -51 25 -48 33 3 7 1 16 -4 19 -6 4 -10 17 -10 31
0 21 -3 23 -18 15 -11 -6 -24 -6 -35 0 -14 8 -17 6 -17 -15z"/>
<path d="M2818 1761 c-14 -34 -22 -61 -18 -61 26 0 310 73 310 80 0 20 -34 28
-145 35 l-120 7 -27 -61z"/>
<path d="M7525 1765 c-14 -32 -23 -60 -21 -63 7 -6 306 69 306 77 -1 23 -26
29 -137 36 l-122 7 -26 -57z"/>
<path d="M12228 1761 c-15 -33 -23 -61 -20 -61 4 0 75 16 159 36 141 34 152
38 142 55 -6 13 -21 19 -43 19 -18 0 -73 3 -122 6 l-90 7 -26 -62z"/>
<path d="M2942 1721 c-84 -21 -155 -41 -159 -44 -3 -4 87 -7 201 -7 l207 0
-32 45 c-18 25 -40 45 -48 44 -9 0 -85 -18 -169 -38z"/>
<path d="M7647 1720 c-82 -21 -151 -41 -154 -44 -4 -3 85 -6 196 -6 159 0 201
3 195 13 -25 41 -59 77 -73 76 -9 0 -83 -18 -164 -39z"/>
<path d="M12347 1720 c-82 -21 -151 -41 -154 -44 -4 -3 87 -6 201 -6 l207 0
-33 45 c-21 27 -41 44 -53 44 -11 -1 -87 -18 -168 -39z"/>
<path d="M1726 1693 l-68 -34 7 -71 c14 -134 8 -134 118 -15 53 58 97 109 97
114 0 5 -19 16 -43 25 -42 15 -43 15 -111 -19z"/>
<path d="M6432 1693 c-73 -34 -74 -35 -68 -66 3 -18 8 -60 12 -94 4 -35 9 -63
13 -62 9 1 190 203 192 214 0 5 -16 17 -38 26 -37 15 -39 15 -111 -18z"/>
<path d="M11136 1693 l-69 -35 7 -74 c12 -129 9 -128 119 -8 54 59 94 111 90
115 -4 4 -24 14 -43 22 -34 14 -38 14 -104 -20z"/>
<path d="M1802 1558 l-112 -123 6 -75 c3 -41 7 -76 9 -78 2 -2 116 58 255 133
138 76 250 139 248 141 -2 2 -65 29 -139 60 -73 31 -139 58 -144 60 -6 2 -61
-51 -123 -118z"/>
<path d="M6505 1555 l-115 -125 6 -57 c12 -104 -7 -107 254 35 129 70 241 131
249 136 18 11 14 13 -149 81 l-129 54 -116 -124z"/>
<path d="M11208 1553 l-114 -125 10 -71 c5 -40 10 -73 11 -75 1 -1 116 59 254
134 139 75 250 138 249 139 -3 3 -235 100 -275 116 -18 7 -36 -9 -135 -118z"/>
<path d="M2760 1620 c-11 -21 -20 -41 -20 -43 0 -3 104 7 178 17 23 4 32 1 32
-10 0 -9 11 -14 30 -14 23 0 30 5 30 19 0 16 11 19 83 25 113 10 130 15 116
32 -9 11 -55 14 -220 14 l-209 0 -20 -40z"/>
<path d="M7465 1624 c-8 -20 -15 -39 -15 -43 0 -4 44 -2 98 5 81 10 99 10 108
-2 16 -20 51 -17 57 5 4 15 18 20 83 25 111 10 127 15 113 32 -9 11 -55 14
-220 14 l-209 0 -15 -36z"/>
<path d="M12172 1633 c-5 -16 -13 -35 -16 -44 -6 -14 1 -15 61 -8 37 5 85 11
106 14 29 4 37 2 37 -10 0 -10 10 -15 30 -15 24 0 30 4 28 17 -3 15 8 19 62
25 139 15 152 18 139 34 -9 11 -52 14 -224 14 l-213 0 -10 -27z"/>
<path d="M1985 1399 c-143 -78 -263 -144 -267 -148 -7 -6 30 -330 39 -340 3
-5 584 567 591 581 3 7 -39 27 -84 42 -13 4 -100 -38 -279 -135z"/>
<path d="M6679 1394 l-265 -144 21 -165 c12 -91 24 -167 26 -169 2 -3 139 127
303 287 l299 292 -49 22 c-27 12 -53 22 -59 22 -5 0 -130 -65 -276 -145z"/>
<path d="M11388 1397 c-141 -78 -260 -145 -263 -149 -8 -8 35 -338 44 -338 3
0 138 132 299 293 l294 294 -51 21 c-27 12 -53 22 -58 21 -4 -1 -124 -65 -265
-142z"/>
<path d="M2067 1172 c-169 -169 -307 -315 -307 -325 0 -9 2 -17 4 -17 2 0 93
53 202 119 110 65 311 185 447 266 137 81 245 151 240 155 -12 10 -253 110
-267 110 -6 0 -149 -138 -319 -308z"/>
<path d="M6773 1173 c-236 -233 -310 -312 -305 -324 6 -14 84 30 442 243 239
142 441 262 448 267 9 5 -34 27 -122 64 -75 32 -139 57 -144 57 -4 0 -148
-138 -319 -307z"/>
<path d="M11477 1174 c-224 -222 -307 -310 -305 -324 3 -17 72 21 444 243 243
144 443 266 443 271 2 9 -244 116 -264 116 -5 -1 -149 -138 -318 -306z"/>
<path d="M4548 1409 c-23 -13 -23 -48 -1 -64 25 -19 32 -154 9 -186 -17 -25
-6 -49 22 -49 8 0 21 -8 28 -17 11 -15 9 -21 -9 -41 -19 -21 -20 -24 -5 -39
18 -18 72 -20 92 -4 9 8 30 -8 82 -60 61 -63 149 -128 158 -118 2 2 -11 69
-29 149 -20 88 -30 149 -24 155 5 5 9 24 9 43 0 32 -2 34 -28 29 -31 -6 -56
20 -46 48 9 22 -15 46 -40 39 -32 -8 -147 55 -166 90 -18 34 -28 39 -52 25z"/>
<path d="M9248 1409 c-24 -13 -23 -45 1 -61 29 -21 42 -165 17 -184 -24 -17
-16 -48 12 -52 12 -2 27 -12 33 -23 8 -16 6 -23 -12 -38 -26 -21 -20 -35 20
-49 20 -7 35 -7 52 2 22 12 29 7 102 -61 72 -69 131 -113 150 -113 10 0 6 18
-30 173 -21 90 -23 113 -13 137 17 41 5 73 -25 66 -29 -7 -49 16 -41 48 7 30
-14 49 -46 41 -32 -8 -152 53 -156 80 -3 18 -28 45 -41 45 -3 0 -14 -5 -23
-11z"/>
<path d="M2244 1084 c-247 -147 -455 -272 -462 -278 -10 -10 -10 -31 -1 -109
7 -52 15 -101 19 -107 5 -8 80 43 216 148 l209 160 26 -31 26 -31 52 39 c50
38 61 58 41 70 -5 3 -14 14 -20 24 -8 16 20 41 205 182 118 90 215 167 215
170 0 7 -55 29 -70 29 -3 0 -209 -120 -456 -266z"/>
<path d="M6954 1087 c-243 -145 -450 -269 -462 -277 -20 -15 -20 -17 -5 -120
8 -58 16 -107 19 -109 2 -2 9 1 16 6 277 213 398 303 407 303 6 0 18 -11 27
-25 9 -14 20 -25 24 -25 5 0 31 18 60 41 l51 40 -24 32 -24 32 213 164 c118
90 214 167 214 171 0 8 -46 30 -63 30 -7 -1 -210 -119 -453 -263z"/>
<path d="M11645 1079 c-247 -148 -454 -270 -459 -272 -10 -3 14 -227 25 -227
4 0 100 71 214 159 l208 158 27 -30 27 -30 51 39 c29 21 52 41 52 45 0 3 -9
18 -20 32 -11 14 -20 27 -20 30 0 2 97 78 215 168 118 90 215 166 215 169 0 7
-62 30 -76 29 -5 0 -211 -122 -459 -270z"/>
<path d="M3255 1318 c-2 -7 -5 -22 -7 -32 -5 -31 -112 -109 -150 -110 -26 -1
-34 -6 -36 -23 -2 -13 1 -23 7 -23 7 0 7 -7 0 -24 -9 -18 -18 -23 -43 -22 -45
2 -48 -34 -6 -76 l32 -32 -16 -75 c-23 -112 -29 -177 -19 -195 8 -14 26 0 111
88 59 62 110 106 121 106 10 0 29 9 42 19 23 18 23 20 7 38 -22 24 -13 61 15
65 27 4 35 37 14 53 -18 13 -39 122 -29 157 3 12 12 29 19 36 17 17 16 27 -3
46 -19 19 -53 21 -59 4z"/>
<path d="M7962 1318 c-7 -7 -12 -21 -12 -31 0 -35 -113 -117 -151 -110 -30 5
-47 -21 -28 -43 7 -9 7 -18 -1 -33 -8 -16 -17 -19 -40 -14 -28 5 -30 4 -30
-26 0 -29 23 -63 48 -72 6 -3 3 -34 -9 -89 -10 -47 -19 -114 -19 -150 l0 -65
108 108 c66 66 115 107 128 107 11 0 31 10 44 22 23 21 23 22 3 38 -15 12 -18
20 -10 37 5 12 18 23 28 26 23 6 24 30 4 61 -9 13 -19 55 -22 93 -4 56 -3 71
11 82 29 24 13 71 -24 71 -9 0 -21 -5 -28 -12z"/>
<path d="M12666 1318 c-3 -7 -6 -22 -8 -32 -5 -31 -112 -109 -150 -110 -31 -1
-33 -4 -34 -36 -1 -59 -1 -59 -39 -53 -33 5 -35 4 -35 -21 0 -17 11 -39 30
-58 l30 -30 -20 -98 c-21 -105 -26 -175 -11 -184 5 -4 54 41 108 99 65 69 105
105 119 105 12 0 32 9 45 19 23 18 23 20 7 38 -21 23 -13 63 12 63 25 0 38 40
17 51 -9 6 -20 38 -28 80 -11 65 -11 74 6 106 14 26 16 39 8 51 -13 21 -52 28
-57 10z"/>
<path d="M0 1156 l0 -154 66 -61 c72 -68 141 -117 151 -108 3 4 -8 68 -26 144
-26 117 -29 143 -19 169 16 43 5 68 -27 60 -27 -7 -50 21 -39 48 9 24 -14 47
-41 40 -13 -3 -33 -1 -44 6 -21 11 -21 10 -21 -144z"/>
<path d="M4174 665 c0 -14 7 -25 15 -25 8 0 11 6 7 16 -3 9 -6 20 -6 25 0 5
-4 9 -9 9 -5 0 -8 -11 -7 -25z"/>
<path d="M8874 674 c3 -9 6 -20 6 -25 0 -5 8 -9 17 -9 13 0 14 3 6 11 -6 6 -9
18 -6 25 3 9 -2 14 -12 14 -12 0 -15 -5 -11 -16z"/>
<path d="M4160 609 c-7 -11 -10 -22 -8 -24 7 -7 77 28 72 36 -10 17 -53 9 -64
-12z"/>
<path d="M8862 598 c-6 -18 -13 -41 -17 -50 -6 -15 1 -17 52 -21 l58 -3 -62
-2 -61 -2 -15 -45 c-9 -25 -15 -45 -13 -45 1 0 24 7 50 16 26 9 49 14 51 12 3
-2 -21 -13 -53 -23 l-57 -19 40 -7 40 -6 -42 -2 c-37 -1 -42 -4 -52 -32 l-11
-31 33 6 c82 17 108 18 121 7 11 -10 18 -8 33 7 11 12 45 24 86 32 73 13 89
29 30 31 -34 1 -35 2 -11 8 l27 6 -25 28 c-20 24 -30 28 -57 23 l-32 -6 30 13
30 14 -22 14 c-13 7 -23 19 -23 25 0 6 -11 21 -24 33 -22 21 -29 22 -57 12
-18 -6 -34 -9 -36 -7 -2 2 10 8 26 14 39 14 40 32 1 32 -24 0 -31 -5 -38 -32z
m125 -185 c-20 -2 -52 -2 -70 0 -17 2 0 4 38 4 39 0 53 -2 32 -4z"/>
<path d="M4180 582 c-19 -9 -36 -25 -38 -35 -3 -14 5 -17 50 -19 l53 -1 -59
-6 c-58 -6 -59 -7 -72 -45 -8 -21 -11 -42 -8 -47 3 -5 -1 -10 -8 -11 -7 0 7
-4 32 -8 l45 -7 -43 -1 c-35 -2 -44 -6 -54 -27 -6 -14 -9 -27 -7 -30 3 -2 36
1 74 7 49 8 70 8 72 1 5 -14 43 -4 43 11 0 7 31 17 75 25 78 13 92 30 27 32
-30 2 -32 3 -9 6 34 5 34 13 2 43 l-26 24 -100 -33 c-55 -18 -102 -31 -104
-29 -3 2 41 19 95 37 98 32 113 42 87 58 -8 4 -24 23 -37 41 -27 36 -40 38
-90 14z m103 -169 c-18 -2 -48 -2 -65 0 -18 2 -4 4 32 4 36 0 50 -2 33 -4z"/>
<path d="M856 571 c-10 -16 2 -66 16 -69 11 -2 14 7 14 32 -1 33 -19 55 -30
37z"/>
<path d="M5565 572 c-13 -9 -13 -55 0 -64 6 -4 16 -8 24 -8 10 0 11 3 3 13 -6
7 -9 22 -6 34 6 22 -6 36 -21 25z"/>
<path d="M10266 571 c-11 -17 2 -66 18 -69 14 -3 16 0 8 15 -6 11 -7 25 -1 35
6 11 4 18 -6 22 -8 3 -17 2 -19 -3z"/>
<path d="M102 547 c-7 -8 -7 -18 -2 -27 5 -8 5 -21 -1 -31 -7 -14 -4 -19 12
-24 26 -9 33 -1 21 21 -6 11 -7 25 -1 35 12 23 -13 45 -29 26z"/>
<path d="M4804 546 c-8 -9 -8 -18 -2 -30 6 -11 6 -22 -2 -32 -7 -7 -9 -14 -4
-14 5 0 20 -3 33 -7 21 -5 22 -4 13 14 -6 11 -9 29 -6 40 7 25 -16 46 -32 29z"/>
<path d="M9511 547 c-6 -8 -6 -18 -1 -27 5 -8 5 -21 -1 -31 -7 -14 -4 -19 12
-24 26 -9 35 0 20 19 -9 10 -9 20 -3 33 13 23 -10 49 -27 30z"/>
<path d="M2940 508 c0 -7 -14 -25 -32 -39 l-31 -26 37 -7 c47 -9 55 -2 31 24
-18 20 -18 21 0 14 12 -5 16 -4 11 4 -3 6 -2 13 4 17 15 9 12 25 -5 25 -8 0
-15 -6 -15 -12z"/>
<path d="M7647 498 c-6 -21 -2 -36 7 -27 10 11 16 49 8 49 -5 0 -12 -10 -15
-22z"/>
<path d="M12349 503 c-1 -10 -1 -22 0 -27 1 -5 -4 -6 -12 -3 -13 5 -54 -19
-46 -27 11 -11 79 -17 79 -8 0 6 -5 14 -11 17 -7 5 -5 14 5 30 14 22 12 35 -6
35 -4 0 -9 -8 -9 -17z"/>
<path d="M824 469 c-8 -15 -14 -30 -14 -32 0 -5 103 13 109 19 9 9 -22 32 -50
36 -25 4 -33 0 -45 -23z"/>
<path d="M5527 468 c-10 -17 -16 -32 -15 -32 7 -5 108 16 108 22 -1 17 -17 29
-45 35 -26 5 -33 1 -48 -25z"/>
<path d="M10234 467 c-9 -16 -14 -30 -12 -31 2 -1 27 2 55 7 47 7 52 11 43 27
-5 10 -23 20 -40 22 -27 4 -33 0 -46 -25z"/>
<path d="M7607 465 c-20 -15 -21 -22 -4 -28 6 -2 0 -2 -14 0 -14 2 -31 -2 -37
-10 -12 -15 -12 -15 91 -81 l27 -18 0 41 c0 34 -4 43 -22 51 -18 7 -19 9 -5 9
22 1 22 23 -1 37 -14 9 -22 9 -35 -1z"/>
<path d="M60 423 c-11 -19 -20 -37 -20 -40 0 -6 97 6 123 16 27 10 0 40 -45
50 -35 8 -38 7 -58 -26z"/>
<path d="M4761 418 l-23 -41 58 8 c66 8 84 14 84 26 0 12 -39 35 -70 42 -21 5
-29 0 -49 -35z"/>
<path d="M9470 425 c-11 -18 -20 -36 -20 -40 0 -7 93 3 122 14 26 9 -3 41 -46
51 -33 7 -37 5 -56 -25z"/>
<path d="M844 428 c-40 -7 -54 -15 -63 -34 -8 -19 -8 -26 2 -29 20 -6 207 -32
207 -29 0 2 -14 26 -31 54 -33 53 -33 53 -115 38z"/>
<path d="M2851 426 c-10 -12 -2 -21 49 -56 34 -23 64 -40 66 -37 3 2 2 23 -2
45 -6 36 -10 41 -41 47 -19 3 -40 8 -47 11 -7 3 -18 -2 -25 -10z"/>
<path d="M5548 427 c-29 -7 -54 -21 -63 -34 -15 -21 -14 -23 7 -28 47 -10 198
-31 198 -27 0 2 -12 26 -27 53 -31 53 -35 55 -115 36z"/>
<path d="M10256 428 c-47 -9 -79 -32 -72 -53 2 -7 205 -47 213 -41 1 1 -12 25
-28 54 -33 55 -33 56 -113 40z"/>
<path d="M12216 399 c-31 -22 -55 -43 -53 -45 2 -2 35 -15 73 -28 38 -14 64
-25 58 -25 -6 -1 -43 10 -82 23 -40 14 -72 22 -72 18 0 -6 218 -141 243 -151
6 -2 7 10 3 35 -4 22 -7 49 -7 61 1 18 -16 34 -69 70 -39 25 -69 48 -66 50 2
2 31 -15 65 -38 33 -24 62 -41 64 -38 2 2 2 23 -1 46 -4 38 -7 42 -39 48 -19
3 -40 8 -47 11 -6 2 -38 -14 -70 -37z"/>
<path d="M1870 395 c0 -16 6 -25 16 -25 11 0 14 5 10 16 -3 9 -6 20 -6 25 0 5
-4 9 -10 9 -5 0 -10 -11 -10 -25z"/>
<path d="M6576 398 c8 -27 12 -33 19 -27 7 8 -7 49 -17 49 -5 0 -6 -10 -2 -22z"/>
<path d="M11278 395 c2 -14 10 -25 17 -25 8 0 10 9 7 25 -2 14 -10 25 -17 25
-8 0 -10 -9 -7 -25z"/>
<path d="M2786 384 c-21 -14 -36 -28 -33 -30 2 -2 35 -15 73 -28 38 -14 64
-25 58 -25 -6 -1 -43 10 -82 23 -40 14 -72 22 -72 18 1 -6 217 -140 242 -151
5 -2 8 14 6 35 -2 29 -9 42 -28 52 -23 13 -23 13 -2 9 40 -9 25 26 -26 59
-109 71 -93 67 -136 38z"/>
<path d="M7483 379 c-24 -17 -43 -34 -43 -38 0 -7 231 -151 242 -151 2 0 2 18
0 40 -4 39 -4 40 -74 62 -38 12 -66 24 -61 25 5 2 35 -6 68 -17 62 -21 69 -21
60 1 -4 11 -121 96 -145 106 -3 1 -24 -11 -47 -28z m2 -39 c13 -6 15 -9 5 -9
-8 0 -22 4 -30 9 -18 12 -2 12 25 0z"/>
<path d="M105 373 c-81 -14 -105 -29 -105 -65 0 -10 3 -18 6 -18 4 0 61 -9
127 -20 66 -12 121 -19 123 -17 4 3 -63 130 -69 133 -1 0 -38 -6 -82 -13z"/>
<path d="M4875 384 c-5 -1 -42 -8 -80 -14 -63 -10 -72 -14 -88 -42 -10 -17
-16 -32 -15 -33 2 -1 53 -10 113 -19 61 -10 122 -20 138 -23 l27 -6 -36 64
c-40 72 -45 78 -59 73z"/>
<path d="M9585 384 c-5 -1 -43 -8 -83 -14 -65 -11 -74 -15 -88 -42 -8 -16 -14
-31 -12 -33 3 -2 249 -45 262 -45 7 0 -22 60 -52 109 -9 15 -21 27 -27 25z"/>
<path d="M3447 357 c-8 -7 -17 -21 -19 -31 -2 -12 -29 -34 -72 -57 -58 -31
-72 -35 -88 -26 -16 10 -22 9 -33 -7 -9 -12 -11 -25 -6 -35 6 -10 4 -23 -4
-34 -11 -15 -17 -16 -34 -8 -33 18 -41 13 -41 -28 0 -30 6 -44 24 -59 17 -13
22 -23 15 -33 -22 -35 -12 -39 109 -39 l117 0 13 29 c8 17 19 28 26 25 7 -3
19 2 26 11 11 13 11 20 -1 42 -8 15 -14 54 -13 94 0 58 4 73 23 93 26 27 23
49 -7 65 -14 7 -24 7 -35 -2z"/>
<path d="M8157 359 c-9 -6 -17 -18 -17 -28 0 -28 -117 -93 -157 -87 -36 5 -58
-13 -49 -42 3 -10 0 -26 -7 -36 -11 -15 -17 -17 -35 -7 -13 7 -27 9 -32 6 -19
-12 -10 -62 16 -88 21 -21 23 -29 15 -46 -6 -11 -11 -22 -11 -25 0 -3 56 -6
125 -6 69 0 124 3 123 8 -4 15 14 52 25 51 29 -3 37 3 37 26 0 14 -5 25 -11
25 -7 0 -10 28 -8 86 3 69 7 87 22 95 9 6 17 21 17 34 0 29 -28 47 -53 34z"/>
<path d="M729 303 c-17 -30 -29 -56 -27 -58 3 -3 74 4 159 15 85 11 155 20
157 20 1 0 -2 9 -8 19 -10 19 -28 24 -198 50 l-52 8 -31 -54z"/>
<path d="M1857 340 c-6 -23 0 -24 39 -10 15 6 29 9 31 6 2 -2 -13 -9 -34 -16
-35 -11 -63 -34 -63 -51 0 -4 12 -10 28 -12 26 -4 26 -4 -4 -6 -29 -1 -33 -5
-46 -53 l-15 -53 26 -6 c25 -6 25 -7 -4 -8 -24 -1 -33 -7 -42 -31 l-11 -31 36
7 c20 3 54 10 75 14 21 4 40 4 43 -1 8 -14 44 -10 44 5 0 9 25 17 75 26 82 14
90 29 17 31 l-47 2 39 6 39 6 -27 32 c-18 21 -33 30 -44 27 -13 -5 -14 -4 -3
4 22 16 3 32 -42 34 -37 1 -38 2 -9 5 l32 4 -36 45 c-41 50 -87 61 -97 24z
m39 -156 c-39 -13 -75 -24 -80 -23 -15 1 116 47 134 47 8 0 -16 -10 -54 -24z
m61 -41 c-20 -2 -52 -2 -70 0 -17 2 0 4 38 4 39 0 53 -2 32 -4z"/>
<path d="M5432 300 c-19 -33 -30 -60 -25 -60 4 0 75 9 157 20 81 11 150 20
152 20 6 0 4 14 -4 27 -4 6 -55 19 -112 28 -58 9 -112 18 -120 21 -11 3 -26
-15 -48 -56z"/>
<path d="M6563 343 c-4 -10 -1 -19 6 -21 8 -3 5 -9 -8 -19 -29 -20 -26 -41 7
-46 26 -4 26 -4 -4 -6 -27 -1 -34 -7 -48 -41 -20 -51 -20 -49 7 -44 14 3 11 0
-8 -8 l-30 -12 30 -7 30 -7 -28 -1 c-20 -1 -30 -8 -38 -27 -5 -15 -8 -28 -6
-31 2 -2 35 3 73 11 41 9 70 11 72 5 6 -14 42 -11 42 5 0 9 25 17 75 26 41 7
75 17 75 21 0 5 -24 10 -52 11 l-53 1 43 6 44 6 -31 29 -31 30 -56 -18 c-31
-10 -58 -16 -60 -14 -2 3 21 12 52 22 65 20 66 39 3 47 l-44 5 35 5 35 4 -39
43 c-41 45 -81 56 -93 25z m57 -13 c-8 -5 -19 -10 -25 -10 -5 0 -3 5 5 10 8 5
20 10 25 10 6 0 3 -5 -5 -10z m37 -187 c-20 -2 -52 -2 -70 0 -17 2 0 4 38 4
39 0 53 -2 32 -4z"/>
<path d="M10136 301 c-18 -31 -32 -57 -31 -59 3 -4 317 36 321 41 2 2 -2 11
-9 20 -8 11 -48 22 -130 35 l-118 19 -33 -56z"/>
<path d="M11266 344 c-10 -25 -8 -27 22 -20 l27 5 -28 -13 c-27 -12 -46 -32
-47 -48 0 -4 12 -9 28 -11 26 -4 26 -4 -4 -6 -29 -1 -33 -5 -46 -53 l-15 -53
26 -6 c25 -6 25 -7 -6 -8 -25 -1 -33 -7 -42 -31 -5 -16 -9 -30 -8 -30 1 0 35
6 75 14 39 7 72 10 72 5 0 -15 37 -10 43 5 3 8 34 19 76 26 81 14 93 29 24 31
-47 2 -48 2 -11 8 l38 6 -26 32 c-13 18 -30 31 -37 29 -7 -1 -8 -1 -4 2 17 9
-18 32 -52 34 l-36 1 34 4 33 4 -28 30 c-15 16 -34 29 -41 29 -7 0 -10 6 -7
15 5 11 -1 15 -24 15 -18 0 -32 -6 -36 -16z m54 -155 c-46 -16 -89 -29 -95
-28 -14 1 147 57 165 57 8 0 -23 -13 -70 -29z m47 -46 c-20 -2 -52 -2 -70 0
-17 2 0 4 38 4 39 0 53 -2 32 -4z"/>
<path d="M2688 316 c-10 -7 -18 -16 -18 -18 0 -3 29 -18 64 -33 42 -18 66 -34
70 -47 4 -16 10 -19 28 -15 16 4 46 -4 86 -23 107 -50 70 -10 -66 73 -70 42
-132 77 -137 77 -6 0 -18 -7 -27 -14z"/>
<path d="M7391 314 c-23 -17 -23 -17 48 -50 42 -19 70 -38 69 -46 -2 -9 9 -13
32 -14 19 0 61 -13 93 -28 36 -16 57 -22 55 -14 -5 13 -245 166 -263 167 -6 1
-21 -6 -34 -15z"/>
<path d="M12098 316 c-10 -7 -18 -16 -18 -19 0 -2 29 -18 65 -33 39 -17 63
-33 61 -40 -6 -15 18 -26 38 -18 7 3 43 -8 80 -25 109 -49 77 -13 -63 72 -71
42 -132 77 -137 77 -5 0 -17 -7 -26 -14z"/>
<path d="M2200 300 c0 -11 -7 -23 -15 -26 -21 -8 -19 -21 5 -27 12 -3 20 -14
20 -27 0 -18 3 -20 14 -11 11 10 13 4 8 -34 l-5 -46 44 7 c72 11 76 17 29 54
-30 24 -38 35 -28 41 10 6 10 11 1 20 -8 8 -9 18 -2 31 8 15 6 18 -15 18 -14
0 -28 5 -31 10 -11 17 -25 11 -25 -10z"/>
<path d="M6910 309 c0 -9 -9 -24 -21 -35 l-20 -18 20 -8 c12 -4 21 -15 21 -24
0 -11 5 -14 16 -10 14 5 15 0 10 -39 l-7 -45 43 6 c82 13 84 16 33 54 -37 28
-43 36 -29 40 13 5 15 9 5 14 -8 5 -10 18 -7 32 5 20 3 24 -17 24 -13 0 -28 5
-35 12 -9 9 -12 9 -12 -3z"/>
<path d="M11610 300 c0 -10 -8 -24 -17 -29 -17 -9 -16 -11 5 -26 12 -9 22 -24
23 -33 0 -10 3 -12 6 -4 11 28 19 9 13 -33 l-7 -46 46 7 c75 11 77 16 25 57
-30 23 -41 37 -30 37 13 0 15 4 8 16 -5 9 -7 25 -5 35 4 14 0 19 -15 19 -12 0
-24 5 -27 10 -10 17 -25 11 -25 -10z"/>
<path d="M0 213 l0 -66 63 7 c150 16 237 29 237 35 0 3 -7 15 -15 25 -11 14
-43 24 -122 37 -59 10 -120 20 -135 23 l-28 6 0 -67z"/>
<path d="M4640 211 c-22 -38 -40 -71 -40 -73 0 -2 84 6 188 19 103 12 193 22
200 23 16 0 15 12 -1 34 -10 14 -49 24 -153 42 -76 13 -142 24 -146 24 -4 0
-25 -31 -48 -69z"/>
<path d="M9374 263 c-6 -10 -25 -43 -42 -74 l-32 -56 108 13 c59 7 151 18 204
25 l97 11 -11 24 c-13 28 -9 27 -174 54 -146 24 -137 24 -150 3z"/>
<path d="M12740 256 c-35 -19 -49 -22 -64 -14 -25 13 -50 -16 -37 -41 6 -10 4
-23 -4 -34 -11 -15 -17 -16 -39 -6 -14 7 -29 9 -33 6 -14 -15 -5 -68 16 -91
16 -17 20 -30 15 -50 l-6 -26 106 0 106 0 0 140 c0 77 -3 140 -7 140 -5 -1
-28 -11 -53 -24z"/>
<path d="M840 247 c-151 -19 -168 -23 -159 -31 7 -7 390 -48 395 -43 11 10
-48 97 -64 96 -10 -1 -87 -10 -172 -22z"/>
<path d="M5550 248 c-150 -20 -168 -23 -159 -32 6 -6 377 -48 388 -44 14 4
-46 98 -62 97 -6 -1 -82 -10 -167 -21z"/>
<path d="M10250 248 c-150 -20 -168 -23 -159 -32 7 -7 390 -49 395 -43 9 9
-51 97 -66 96 -8 -1 -85 -10 -170 -21z"/>
<path d="M651 166 c-12 -18 -21 -36 -21 -40 0 -3 47 -6 105 -6 87 0 105 -3
105 -15 0 -9 9 -15 25 -15 16 0 25 6 25 15 0 12 19 15 110 15 108 0 137 10 88
30 -18 7 -376 51 -410 50 -3 0 -16 -15 -27 -34z"/>
<path d="M5357 171 c-29 -49 -25 -51 83 -51 82 0 100 -3 100 -15 0 -10 10 -15
30 -15 20 0 30 5 30 15 0 12 18 15 105 15 104 0 131 10 83 30 -19 7 -363 50
-403 50 -6 0 -18 -13 -28 -29z"/>
<path d="M10060 168 c-11 -18 -20 -36 -20 -40 0 -5 47 -8 105 -8 87 0 105 -3
105 -15 0 -9 9 -15 25 -15 16 0 25 6 25 15 0 12 18 15 104 15 98 0 133 9 105
26 -11 6 -366 53 -412 54 -9 0 -26 -15 -37 -32z"/>
<path d="M145 150 c-77 -10 -141 -19 -143 -19 -2 -1 -2 -11 0 -23 3 -22 12
-24 168 -45 237 -31 219 -35 177 40 -20 34 -41 63 -49 63 -7 1 -76 -6 -153
-16z"/>
<path d="M4785 143 c-192 -24 -214 -28 -204 -37 7 -7 490 -68 496 -63 9 10
-62 127 -77 126 -8 -1 -105 -13 -215 -26z"/>
<path d="M9495 144 c-110 -14 -204 -29 -209 -34 -7 -7 -5 -10 5 -10 7 0 117
-14 243 -30 126 -17 236 -30 243 -30 18 0 -50 124 -69 126 -7 1 -103 -9 -213
-22z"/>
<path d="M3850 118 c-24 -26 -26 -55 -5 -84 8 -12 11 -24 8 -28 -3 -3 19 -6
51 -6 31 0 55 4 52 9 -3 4 1 17 9 27 50 67 -57 144 -115 82z"/>
<path d="M8557 123 c-22 -26 -24 -45 -8 -86 14 -35 17 -37 60 -37 40 0 48 4
59 27 17 39 15 70 -8 93 -25 25 -81 26 -103 3z"/>
<path d="M1482 118 c-18 -18 -15 -45 8 -68 11 -11 20 -27 20 -35 0 -12 16 -15
88 -14 l87 0 -55 25 c-64 29 -90 51 -90 74 0 27 -37 39 -58 18z"/>
<path d="M2297 116 c-37 -7 -69 -15 -72 -18 -3 -2 -8 -26 -11 -51 l-7 -47 69
0 c61 0 76 5 122 34 l54 33 -38 31 c-21 18 -41 31 -44 31 -3 -1 -35 -7 -73
-13z"/>
<path d="M6188 119 c-24 -13 -23 -46 2 -61 11 -7 20 -23 20 -35 0 -22 3 -23
88 -22 l87 0 -50 24 c-61 29 -85 48 -85 67 0 17 -20 38 -34 38 -6 0 -19 -5
-28 -11z"/>
<path d="M6996 114 c-38 -7 -70 -15 -71 -16 -1 -2 -6 -24 -9 -51 l-7 -47 70 0
c61 0 77 4 121 31 27 17 50 34 50 37 0 9 -67 62 -77 61 -4 0 -39 -7 -77 -15z"/>
<path d="M10887 112 c-17 -19 -14 -52 5 -52 5 0 14 -13 19 -30 l11 -30 86 0
85 0 -64 32 c-41 22 -69 44 -79 63 -20 37 -41 42 -63 17z"/>
<path d="M11707 116 c-37 -7 -69 -15 -72 -18 -3 -2 -9 -26 -14 -51 l-8 -47 71
0 c63 0 77 4 124 34 l54 33 -40 31 c-22 18 -41 31 -43 31 -2 -1 -34 -7 -72
-13z"/>
<path d="M4562 77 c-5 -6 -17 -27 -26 -44 l-17 -33 298 0 c213 0 294 3 286 11
-6 6 -111 24 -234 39 -123 16 -240 32 -260 35 -23 3 -40 0 -47 -8z"/>
<path d="M9247 46 l-26 -46 295 0 c165 0 294 4 294 9 0 11 -23 15 -270 46
-113 14 -219 28 -236 31 -29 5 -33 2 -57 -40z"/>
<path d="M0 35 l0 -35 200 0 c120 0 200 4 200 10 0 5 -15 12 -32 15 -36 6
-348 45 -360 45 -5 0 -8 -16 -8 -35z"/>
<path d="M2435 24 l-40 -24 68 0 c37 0 67 2 67 4 0 3 -12 14 -28 24 l-28 20
-39 -24z"/>
<path d="M7147 31 c-45 -29 -43 -31 23 -31 l63 0 -23 25 c-27 29 -27 29 -63 6z"/>
<path d="M11844 25 l-39 -24 68 -1 c37 0 67 1 67 3 0 2 -13 13 -29 24 l-28 21
-39 -23z"/>
<path d="M6418 3 c7 -3 16 -2 19 1 4 3 -2 6 -13 5 -11 0 -14 -3 -6 -6z"/>
</g>
</svg>
